<?xml version="1.0" standalone="no"?>
<!DOCTYPE svg PUBLIC "-//W3C//DTD SVG 20010904//EN"
 "http://www.w3.org/TR/2001/REC-SVG-20010904/DTD/svg10.dtd">
<svg version="1.0" xmlns="http://www.w3.org/2000/svg"
 width="600.000000pt" height="338.000000pt" viewBox="0 0 600.000000 338.000000"
 preserveAspectRatio="xMidYMid meet">
<g transform="translate(0.000000,338.000000) scale(0.100000,-0.100000)"
fill="#000000" stroke="none">
<path d="M2043 3373 c15 -2 39 -2 55 0 15 2 2 4 -28 4 -30 0 -43 -2 -27 -4z"/>
<path d="M2506 3365 c-16 -12 -17 -15 -4 -15 9 0 18 7 22 15 7 18 6 18 -18 0z"/>
<path d="M2140 3362 c0 -5 17 -8 37 -7 33 2 71 -6 138 -30 14 -5 16 -4 6 3 -9
7 -10 11 -2 16 6 4 43 -11 83 -34 39 -22 73 -38 76 -35 3 3 -1 5 -9 5 -9 0
-10 3 -3 8 6 4 15 18 19 32 7 22 6 23 -9 8 -9 -9 -16 -22 -16 -28 0 -22 -19 1
-25 30 -8 36 -23 47 -32 25 -3 -10 0 -21 8 -26 11 -7 11 -9 -3 -9 -10 0 -18 6
-18 14 0 21 -14 27 -70 32 -36 3 -50 1 -50 -8 0 -9 -3 -9 -12 0 -14 14 -118
17 -118 4z"/>
<path d="M2052 3339 c-56 -19 -91 -42 -154 -101 -22 -21 -44 -38 -48 -38 -4 0
-25 -21 -46 -47 -31 -38 -112 -121 -157 -161 -17 -15 -57 -84 -57 -97 0 -8 -3
-15 -8 -15 -12 0 -40 -61 -46 -100 -10 -65 -19 -95 -32 -111 -8 -8 -17 -30
-20 -48 l-7 -33 25 22 c16 13 24 29 21 40 -4 14 3 20 29 26 18 4 40 7 48 5 11
-1 12 0 3 7 -7 4 -27 7 -44 6 l-31 -2 23 24 c17 18 20 27 12 32 -14 9 -12 37
4 53 6 6 9 18 6 25 -3 8 2 17 11 20 9 3 14 9 11 14 -2 4 9 25 25 46 16 21 30
45 30 52 0 16 60 53 73 45 6 -3 7 -1 4 4 -4 6 5 14 21 17 89 22 107 24 115 13
6 -8 7 -7 4 3 -5 20 -53 21 -96 4 -19 -8 -36 -12 -39 -9 -6 6 37 45 50 45 5 0
7 4 3 9 -5 10 43 61 57 61 5 0 8 6 8 13 0 7 16 19 35 26 19 7 35 17 35 23 0 6
-6 6 -15 -2 -13 -11 -14 -10 -9 4 3 9 12 16 20 16 7 0 17 6 21 13 11 19 62 51
70 44 3 -3 14 4 24 16 17 20 18 20 12 2 -6 -17 -5 -18 9 -7 11 9 17 9 20 2 2
-7 11 -5 23 5 11 9 14 14 8 10 -7 -3 -21 -1 -30 4 -16 9 -14 10 9 11 15 0 29
4 33 9 11 18 -11 18 -63 0z"/>
<path d="M2549 3348 c-7 -24 -5 -43 5 -53 18 -19 42 20 25 41 -10 12 -27 19
-30 12z"/>
<path d="M2176 3328 c3 -5 10 -6 15 -3 13 9 11 12 -6 12 -8 0 -12 -4 -9 -9z"/>
<path d="M2500 3320 c-12 -23 -2 -26 24 -7 17 12 17 14 3 20 -11 4 -21 -1 -27
-13z"/>
<path d="M2628 3333 c-18 -5 -33 -33 -17 -33 6 0 7 -5 3 -11 -4 -8 0 -8 15 0
12 7 21 8 20 4 -3 -20 2 -27 10 -14 14 22 2 39 -22 34 -22 -5 -22 -5 -2 10 21
17 21 17 -7 10z"/>
<path d="M2270 3300 c0 -5 5 -10 10 -10 6 0 10 5 10 10 0 6 -4 10 -10 10 -5 0
-10 -4 -10 -10z"/>
<path d="M2130 3280 c0 -5 5 -10 10 -10 6 0 10 5 10 10 0 6 -4 10 -10 10 -5 0
-10 -4 -10 -10z"/>
<path d="M2676 3274 c-3 -9 -2 -23 4 -32 9 -16 9 -16 10 1 0 9 5 17 10 17 15
0 12 17 -4 23 -8 3 -17 -1 -20 -9z"/>
<path d="M2070 3255 c-10 -12 -10 -15 4 -15 9 0 16 7 16 15 0 8 -2 15 -4 15
-2 0 -9 -7 -16 -15z"/>
<path d="M2480 3240 c18 -12 30 -13 30 -2 0 4 -10 9 -22 9 -18 2 -20 0 -8 -7z"/>
<path d="M2708 3243 c7 -3 16 -2 19 1 4 3 -2 6 -13 5 -11 0 -14 -3 -6 -6z"/>
<path d="M2010 3230 c-13 -8 -12 -10 3 -10 9 0 17 5 17 10 0 12 -1 12 -20 0z"/>
<path d="M1965 3220 c-3 -6 1 -7 9 -4 18 7 21 14 7 14 -6 0 -13 -4 -16 -10z"/>
<path d="M2720 3220 c-17 -4 -21 -8 -12 -14 7 -4 9 -13 6 -19 -4 -7 -4 -9 0
-6 4 4 19 -4 33 -17 25 -23 70 -34 58 -14 -3 6 -14 10 -23 10 -14 0 -14 1 0
13 14 11 13 14 -10 33 -19 14 -35 19 -52 14z m30 -20 c0 -5 -2 -10 -4 -10 -3
0 -8 5 -11 10 -3 6 -1 10 4 10 6 0 11 -4 11 -10z"/>
<path d="M2130 3189 c61 -21 72 -23 50 -9 -13 8 -13 11 -1 19 9 6 -7 9 -45 9
l-59 1 55 -20z"/>
<path d="M2080 3160 c0 -5 5 -10 11 -10 5 0 7 5 4 10 -3 6 -8 10 -11 10 -2 0
-4 -4 -4 -10z"/>
<path d="M2678 3143 c7 -3 16 -2 19 1 4 3 -2 6 -13 5 -11 0 -14 -3 -6 -6z"/>
<path d="M1895 3130 c-13 -5 -14 -9 -5 -9 8 0 24 4 35 9 13 5 14 9 5 9 -8 0
-24 -4 -35 -9z"/>
<path d="M2156 3116 c3 -9 11 -16 16 -16 13 0 5 23 -10 28 -7 2 -10 -2 -6 -12z"/>
<path d="M2716 3121 c-4 -5 3 -7 14 -4 23 6 26 13 6 13 -8 0 -17 -4 -20 -9z"/>
<path d="M2785 3120 c-3 -4 2 -13 10 -20 23 -19 18 -31 -10 -20 -14 5 -25 6
-25 1 0 -5 12 -11 28 -14 19 -4 34 -18 50 -47 12 -23 22 -48 22 -57 0 -8 5
-11 11 -7 6 3 4 -5 -5 -18 -9 -14 -13 -28 -9 -32 5 -4 9 -12 9 -17 1 -5 2 -13
3 -19 0 -5 17 0 37 12 30 18 34 23 20 28 -10 3 -18 10 -18 15 0 6 -7 26 -16
45 -16 36 -19 44 -21 58 0 5 -10 18 -21 30 -14 14 -16 22 -8 23 7 0 2 5 -12
10 -18 7 -21 12 -11 18 9 6 7 10 -8 14 -12 3 -23 2 -26 -3z m109 -219 c-2 -2
-10 -1 -19 3 -13 5 -14 8 -3 20 11 12 14 12 19 -3 4 -9 5 -18 3 -20z"/>
<path d="M1995 3110 c3 -5 8 -10 11 -10 2 0 4 5 4 10 0 6 -5 10 -11 10 -5 0
-7 -4 -4 -10z"/>
<path d="M1837 3096 c-4 -10 -1 -13 8 -9 8 3 12 9 9 14 -7 12 -11 11 -17 -5z"/>
<path d="M2495 3100 c-16 -7 -17 -9 -3 -9 9 -1 20 4 23 9 7 11 7 11 -20 0z"/>
<path d="M1800 3090 c0 -5 5 -10 10 -10 6 0 10 5 10 10 0 6 -4 10 -10 10 -5 0
-10 -4 -10 -10z"/>
<path d="M1910 3086 c0 -2 7 -7 16 -10 8 -3 12 -2 9 4 -6 10 -25 14 -25 6z"/>
<path d="M1981 3079 c-18 -6 -31 -13 -28 -16 8 -7 66 7 72 18 7 11 1 10 -44
-2z"/>
<path d="M2526 3082 c-3 -5 1 -9 9 -9 8 0 12 4 9 9 -3 4 -7 8 -9 8 -2 0 -6 -4
-9 -8z"/>
<path d="M2040 3053 c0 -11 54 -23 64 -13 7 7 6 10 -4 11 -8 1 -25 3 -37 4
-13 1 -23 1 -23 -2z"/>
<path d="M1950 3046 c0 -2 7 -7 16 -10 8 -3 12 -2 9 4 -6 10 -25 14 -25 6z"/>
<path d="M1995 3030 c6 -10 64 -24 71 -17 3 2 -13 9 -36 15 -22 5 -38 6 -35 2z"/>
<path d="M1915 3010 c-3 -4 4 -10 15 -13 11 -3 22 -2 25 3 3 4 -4 10 -15 13
-11 3 -22 2 -25 -3z"/>
<path d="M1975 3000 c3 -5 14 -10 23 -10 15 0 15 2 2 10 -20 13 -33 13 -25 0z"/>
<path d="M1753 2993 c9 -2 23 -2 30 0 6 3 -1 5 -18 5 -16 0 -22 -2 -12 -5z"/>
<path d="M1880 2979 c0 -5 9 -9 20 -9 11 0 20 2 20 4 0 2 -9 6 -20 9 -11 3
-20 1 -20 -4z"/>
<path d="M2220 2972 c0 -8 37 -42 45 -42 14 0 2 20 -15 25 -11 4 -18 11 -15
16 4 5 1 9 -4 9 -6 0 -11 -3 -11 -8z"/>
<path d="M1759 2944 c-12 -15 -11 -16 11 -9 35 10 49 25 23 25 -11 0 -27 -7
-34 -16z"/>
<path d="M2026 2946 c10 -8 21 -12 24 -10 5 6 -21 24 -34 24 -6 0 -1 -6 10
-14z"/>
<path d="M1720 2935 c-11 -13 -10 -14 4 -9 9 3 16 10 16 15 0 13 -6 11 -20 -6z"/>
<path d="M1890 2946 c0 -2 7 -7 16 -10 8 -3 12 -2 9 4 -6 10 -25 14 -25 6z"/>
<path d="M2318 2943 c7 -3 16 -2 19 1 4 3 -2 6 -13 5 -11 0 -14 -3 -6 -6z"/>
<path d="M2400 2940 c0 -5 5 -10 11 -10 5 0 7 5 4 10 -3 6 -8 10 -11 10 -2 0
-4 -4 -4 -10z"/>
<path d="M1957 2926 c-3 -8 1 -17 10 -20 23 -9 28 1 10 18 -13 13 -16 13 -20
2z"/>
<path d="M1660 2920 c0 -4 9 -10 20 -13 11 -3 20 -2 20 3 0 4 -9 10 -20 13
-11 3 -20 2 -20 -3z"/>
<path d="M2148 2923 c7 -3 16 -2 19 1 4 3 -2 6 -13 5 -11 0 -14 -3 -6 -6z"/>
<path d="M1820 2904 c-24 -13 -22 -14 28 -12 28 0 52 5 52 10 0 4 -6 8 -14 8
-8 0 -20 2 -28 4 -7 2 -24 -2 -38 -10z"/>
<path d="M2239 2906 c-25 -11 -25 -11 -7 -30 18 -19 18 -19 18 2 0 24 16 38
23 20 4 -9 6 -10 6 -1 1 18 -12 21 -40 9z"/>
<path d="M2371 2904 c0 -11 3 -14 6 -6 3 7 2 16 -1 19 -3 4 -6 -2 -5 -13z"/>
<path d="M2766 2893 c-6 -14 -5 -15 5 -6 7 7 10 15 7 18 -3 3 -9 -2 -12 -12z"/>
<path d="M2685 2890 c-3 -5 1 -10 9 -10 9 0 16 5 16 10 0 6 -4 10 -9 10 -6 0
-13 -4 -16 -10z"/>
<path d="M1968 2883 c6 -2 18 -2 25 0 6 3 1 5 -13 5 -14 0 -19 -2 -12 -5z"/>
<path d="M1719 2865 c37 -17 57 -19 65 -7 3 5 0 9 -7 9 -7 0 -30 3 -52 6 l-40
7 34 -15z"/>
<path d="M2158 2861 c-15 -15 -14 -16 8 -16 25 0 28 3 16 21 -5 8 -12 6 -24
-5z"/>
<path d="M2400 2865 c0 -8 4 -15 10 -15 5 0 7 7 4 15 -4 8 -8 15 -10 15 -2 0
-4 -7 -4 -15z"/>
<path d="M2640 2870 c0 -5 7 -10 16 -10 8 0 12 5 9 10 -3 6 -10 10 -16 10 -5
0 -9 -4 -9 -10z"/>
<path d="M2912 2844 c-33 -32 -34 -34 -7 -17 53 35 59 37 50 23 -6 -10 -4 -12
9 -7 11 4 26 -4 46 -25 39 -40 38 -55 -1 -28 -16 12 -33 20 -36 17 -3 -3 17
-22 45 -41 74 -54 116 -164 77 -202 -17 -17 -21 -39 -5 -29 6 3 10 -3 10 -14
0 -11 5 -23 11 -27 8 -4 9 3 4 25 -4 17 -3 31 2 31 5 0 6 26 2 60 -12 100
-110 270 -156 270 -7 0 -30 -16 -51 -36z"/>
<path d="M1988 2863 c6 -2 18 -2 25 0 6 3 1 5 -13 5 -14 0 -19 -2 -12 -5z"/>
<path d="M2785 2860 c-3 -6 1 -7 9 -4 18 7 21 14 7 14 -6 0 -13 -4 -16 -10z"/>
<path d="M1635 2840 c-3 -5 3 -10 14 -10 12 0 21 5 21 10 0 6 -6 10 -14 10 -8
0 -18 -4 -21 -10z"/>
<path d="M2075 2840 c-3 -5 1 -10 10 -10 9 0 13 5 10 10 -3 6 -8 10 -10 10 -2
0 -7 -4 -10 -10z"/>
<path d="M2467 2839 c7 -7 15 -10 18 -7 3 3 -2 9 -12 12 -14 6 -15 5 -6 -5z"/>
<path d="M2590 2841 c0 -6 4 -13 10 -16 6 -3 7 1 4 9 -7 18 -14 21 -14 7z"/>
<path d="M2670 2840 c0 -5 7 -7 15 -4 8 4 15 8 15 10 0 2 -7 4 -15 4 -8 0 -15
-4 -15 -10z"/>
<path d="M2839 2848 c-1 -2 -2 -14 -4 -28 -1 -14 -5 -43 -9 -65 -6 -34 -4 -44
13 -60 21 -18 21 -18 10 13 -8 23 -7 42 5 83 9 29 16 54 16 56 0 4 -29 4 -31
1z"/>
<path d="M1840 2830 c8 -5 20 -10 25 -10 6 0 3 5 -5 10 -8 5 -19 10 -25 10 -5
0 -3 -5 5 -10z"/>
<path d="M1935 2830 c3 -5 11 -10 16 -10 6 0 7 5 4 10 -3 6 -11 10 -16 10 -6
0 -7 -4 -4 -10z"/>
<path d="M2801 2808 c1 -19 2 -20 6 -4 4 15 7 16 15 5 8 -12 9 -12 6 0 -7 25
-28 24 -27 -1z"/>
<path d="M2025 2810 c-3 -6 1 -7 9 -4 18 7 21 14 7 14 -6 0 -13 -4 -16 -10z"/>
<path d="M2120 2810 c0 -5 5 -10 10 -10 6 0 10 5 10 10 0 6 -4 10 -10 10 -5 0
-10 -4 -10 -10z"/>
<path d="M2390 2810 c0 -5 5 -10 11 -10 5 0 7 5 4 10 -3 6 -8 10 -11 10 -2 0
-4 -4 -4 -10z"/>
<path d="M2730 2806 c7 -7 13 -7 20 0 6 6 3 10 -10 10 -13 0 -16 -4 -10 -10z"/>
<path d="M1655 2800 c4 -6 11 -8 16 -5 14 9 11 15 -7 15 -8 0 -12 -5 -9 -10z"/>
<path d="M1898 2803 c7 -3 16 -2 19 1 4 3 -2 6 -13 5 -11 0 -14 -3 -6 -6z"/>
<path d="M2507 2790 c3 -11 7 -20 9 -20 2 0 4 9 4 20 0 11 -4 20 -9 20 -5 0
-7 -9 -4 -20z"/>
<path d="M2688 2792 c-4 -12 1 -18 13 -19 16 -2 17 2 9 18 -13 24 -16 24 -22
1z"/>
<path d="M1680 2780 c-25 -11 -38 -20 -30 -21 27 -3 42 2 63 22 24 22 25 22
-33 -1z"/>
<path d="M2046 2785 c-3 -10 -4 -20 -1 -23 3 -3 5 1 5 8 0 11 3 11 12 2 17
-17 28 -15 28 6 0 13 -2 14 -9 3 -7 -11 -10 -10 -18 4 -9 16 -10 16 -17 0z"/>
<path d="M2160 2784 c0 -8 5 -12 10 -9 6 4 8 11 5 16 -9 14 -15 11 -15 -7z"/>
<path d="M2446 2785 c10 -8 26 -14 34 -14 9 0 4 6 -10 14 -33 19 -49 19 -24 0z"/>
<path d="M2585 2771 c-3 -5 -1 -12 5 -16 5 -3 10 1 10 9 0 18 -6 21 -15 7z"/>
<path d="M2800 2771 c0 -6 5 -13 10 -16 6 -3 10 1 10 9 0 9 -4 16 -10 16 -5 0
-10 -4 -10 -9z"/>
<path d="M2904 2759 c-3 -6 -1 -15 6 -19 7 -4 10 -15 7 -24 -9 -22 -2 -20 23
6 24 26 26 43 5 34 -8 -3 -15 -1 -15 4 0 14 -17 13 -26 -1z"/>
<path d="M1800 2750 c0 -5 5 -10 11 -10 5 0 7 5 4 10 -3 6 -8 10 -11 10 -2 0
-4 -4 -4 -10z"/>
<path d="M2530 2751 c0 -5 7 -12 16 -15 14 -5 15 -4 4 9 -14 17 -20 19 -20 6z"/>
<path d="M2730 2750 c0 -6 5 -10 11 -10 5 0 7 -5 3 -12 -4 -7 -3 -8 4 -4 16
10 15 23 -3 30 -8 3 -15 1 -15 -4z"/>
<path d="M1590 2739 c0 -5 5 -7 10 -4 6 3 10 8 10 11 0 2 -4 4 -10 4 -5 0 -10
-5 -10 -11z"/>
<path d="M2610 2730 c0 -5 5 -10 10 -10 6 0 10 5 10 10 0 6 -4 10 -10 10 -5 0
-10 -4 -10 -10z"/>
<path d="M4898 2733 c7 -3 16 -2 19 1 4 3 -2 6 -13 5 -11 0 -14 -3 -6 -6z"/>
<path d="M2680 2721 c0 -5 5 -13 10 -16 6 -3 10 -2 10 4 0 5 -4 13 -10 16 -5
3 -10 2 -10 -4z"/>
<path d="M2635 2710 c-8 -13 5 -13 25 0 13 8 13 10 -2 10 -9 0 -20 -4 -23 -10z"/>
<path d="M3011 2711 c-7 -5 -13 -12 -14 -17 -1 -5 -6 -7 -12 -5 -12 4 -22 5
-52 3 -37 -3 -26 -20 11 -20 19 0 48 -3 65 -7 26 -5 31 -4 31 12 0 27 -14 43
-29 34z"/>
<path d="M2780 2701 c0 -6 4 -12 9 -16 6 -3 9 -13 9 -23 -1 -26 17 -64 43 -93
13 -14 35 -40 49 -58 14 -18 30 -39 37 -46 7 -7 9 -15 6 -19 -4 -3 2 -12 12
-20 10 -7 15 -18 11 -24 -3 -6 -2 -13 3 -16 15 -10 20 35 5 52 -7 9 -43 58
-78 107 -36 50 -69 95 -73 100 -4 6 -8 16 -9 23 -3 36 -5 42 -14 42 -5 0 -10
-4 -10 -9z"/>
<path d="M1930 2689 c0 -5 5 -7 10 -4 6 3 10 8 10 11 0 2 -4 4 -10 4 -5 0 -10
-5 -10 -11z"/>
<path d="M2011 2674 c0 -11 3 -14 6 -6 3 7 2 16 -1 19 -3 4 -6 -2 -5 -13z"/>
<path d="M2046 2663 c-6 -14 -5 -15 5 -6 7 7 10 15 7 18 -3 3 -9 -2 -12 -12z"/>
<path d="M3060 2656 c0 -8 4 -17 9 -20 5 -4 7 3 4 14 -6 23 -13 26 -13 6z"/>
<path d="M1970 2648 c0 -13 7 -18 28 -17 21 1 22 2 7 6 -11 3 -23 10 -27 17
-5 7 -8 5 -8 -6z"/>
<path d="M2950 2631 c0 -5 14 -12 30 -16 24 -5 30 -12 29 -33 0 -27 -1 -27
-11 -5 -11 23 -22 29 -70 37 -22 4 -26 1 -25 -15 1 -11 6 -18 11 -16 17 6 55
-34 61 -64 8 -35 31 -44 47 -19 16 26 25 25 34 -2 3 -12 22 -45 40 -74 19 -29
34 -56 34 -59 0 -4 17 -27 38 -53 22 -26 48 -65 59 -87 12 -22 26 -39 33 -37
6 1 9 -2 5 -7 -3 -6 4 -29 16 -53 31 -60 69 -169 69 -195 0 -13 5 -23 10 -23
19 0 -19 131 -62 210 l-29 55 28 -35 c15 -19 40 -48 56 -64 15 -16 27 -35 27
-42 0 -7 8 -10 20 -7 27 7 25 17 -5 37 -14 9 -23 22 -19 28 4 6 3 9 -2 6 -10
-7 -36 17 -28 25 3 3 -4 8 -15 12 -11 3 -18 12 -15 20 6 16 63 3 79 -18 10
-14 45 -31 56 -29 4 1 5 -8 2 -18 -6 -22 7 -26 25 -8 9 9 12 9 12 1 0 -7 -9
-14 -19 -18 -11 -3 -25 -13 -33 -23 -11 -15 -11 -15 2 -5 28 21 48 -8 29 -42
-3 -5 -6 -22 -7 -36 -2 -29 -38 -115 -52 -124 -6 -3 -10 -16 -10 -28 1 -32 80
113 82 149 1 16 4 33 7 39 13 25 7 92 -10 114 -23 29 -140 89 -187 97 -27 4
-43 15 -58 38 -11 17 -43 65 -71 106 -88 131 -106 168 -99 215 8 52 -12 87
-38 66 -13 -11 -20 -11 -28 -3 -14 14 -48 16 -48 3z m96 -48 c-2 -16 -7 -30
-12 -33 -11 -6 -18 35 -10 56 9 24 24 7 22 -23z m-66 -3 c0 -5 -7 -7 -15 -4
-8 4 -15 8 -15 10 0 2 7 4 15 4 8 0 15 -4 15 -10z m29 -44 c9 -11 9 -16 -1
-22 -7 -4 -10 -4 -6 1 4 4 3 14 -3 22 -6 7 -9 13 -6 13 2 0 10 -6 16 -14z"/>
<path d="M1503 2583 c-32 -37 -30 -64 2 -29 14 15 25 31 25 36 0 5 10 11 23
13 20 4 20 4 -3 5 -15 0 -34 -9 -47 -25z"/>
<path d="M1690 2596 c14 -8 27 -12 29 -10 6 6 -1 11 -29 18 l-25 7 25 -15z"/>
<path d="M1773 2595 c-3 -9 -3 -19 1 -22 3 -4 6 1 6 10 0 8 8 18 18 20 16 4
16 5 -1 6 -10 0 -20 -6 -24 -14z"/>
<path d="M2746 2603 c5 -5 12 -12 16 -18 4 -6 8 -2 8 8 0 9 -7 17 -17 17 -9 0
-12 -3 -7 -7z"/>
<path d="M1590 2586 c0 -2 7 -7 16 -10 8 -3 12 -2 9 4 -6 10 -25 14 -25 6z"/>
<path d="M1918 2568 c5 -5 16 -8 23 -6 8 3 3 7 -10 11 -17 4 -21 3 -13 -5z"/>
<path d="M2795 2564 c9 -9 19 -13 23 -10 3 4 0 11 -8 16 -24 15 -33 11 -15 -6z"/>
<path d="M1527 2563 c-4 -3 -7 -14 -7 -24 0 -9 -7 -20 -16 -23 -8 -3 -12 -11
-9 -17 4 -5 -1 -17 -11 -24 -16 -12 -16 -14 -3 -15 18 0 49 30 49 48 0 7 5 12
12 12 9 0 9 3 0 12 -15 15 -16 32 -2 23 6 -3 10 -1 10 4 0 12 -13 14 -23 4z"/>
<path d="M2000 2556 c0 -2 7 -7 16 -10 8 -3 12 -2 9 4 -6 10 -25 14 -25 6z"/>
<path d="M2430 2535 c-14 -8 -36 -15 -50 -15 -20 0 -22 -2 -10 -10 26 -17 56
-11 80 15 26 28 18 32 -20 10z"/>
<path d="M1670 2536 c0 -2 7 -6 15 -10 8 -3 15 -1 15 4 0 6 -7 10 -15 10 -8 0
-15 -2 -15 -4z"/>
<path d="M2830 2529 c0 -5 5 -7 10 -4 6 3 10 8 10 11 0 2 -4 4 -10 4 -5 0 -10
-5 -10 -11z"/>
<path d="M3152 2520 c0 -14 2 -19 5 -12 2 6 2 18 0 25 -3 6 -5 1 -5 -13z"/>
<path d="M1940 2520 c0 -5 5 -10 11 -10 5 0 7 5 4 10 -3 6 -8 10 -11 10 -2 0
-4 -4 -4 -10z"/>
<path d="M2460 2509 c0 -5 5 -7 10 -4 6 3 10 8 10 11 0 2 -4 4 -10 4 -5 0 -10
-5 -10 -11z"/>
<path d="M2854 2479 c-1 -16 2 -29 7 -29 4 0 10 -8 13 -17 2 -10 2 0 -1 22 -7
50 -18 64 -19 24z"/>
<path d="M1890 2496 c0 -2 8 -10 17 -17 9 -8 14 -9 10 -2 -4 6 -1 14 5 16 7 3
3 6 -9 6 -13 1 -23 -1 -23 -3z"/>
<path d="M2340 2489 c-13 -9 -12 -10 3 -5 27 8 20 -9 -8 -22 -22 -10 -24 -14
-13 -26 7 -8 17 -11 22 -8 5 3 6 0 2 -7 -5 -7 -18 -11 -30 -9 -15 2 -36 -10
-64 -36 -34 -33 -38 -41 -27 -52 18 -18 26 -18 19 1 -5 11 -2 13 12 8 11 -4
15 -3 11 4 -9 15 17 35 35 28 10 -4 17 1 21 16 4 14 11 20 21 16 8 -3 17 -1
19 6 6 19 -4 37 -21 37 -22 0 -4 16 28 25 20 6 23 5 13 -6 -16 -16 -17 -29 -3
-29 6 0 10 7 10 16 0 8 4 13 9 10 5 -4 7 3 4 13 -3 13 -10 18 -21 14 -10 -4
-13 -2 -8 5 9 15 -14 15 -34 1z"/>
<path d="M3146 2474 c-4 -9 -4 -19 -1 -22 2 -3 7 3 11 12 4 9 4 19 1 22 -2 3
-7 -3 -11 -12z"/>
<path d="M1740 2470 c0 -5 5 -10 10 -10 6 0 10 5 10 10 0 6 -4 10 -10 10 -5 0
-10 -4 -10 -10z"/>
<path d="M2630 2476 c0 -2 8 -10 18 -17 15 -13 16 -12 3 4 -13 16 -21 21 -21
13z"/>
<path d="M3021 2471 c-12 -8 -12 -12 -2 -25 8 -9 19 -16 25 -16 6 0 3 7 -7 14
-18 14 -18 15 0 25 10 6 14 10 8 11 -5 0 -16 -4 -24 -9z"/>
<path d="M2590 2460 c0 -5 -11 -10 -24 -10 -28 0 -83 -18 -114 -38 -37 -24
-18 -25 27 -1 25 13 50 19 65 15 16 -4 29 1 46 19 13 14 18 25 12 25 -7 0 -12
-4 -12 -10z"/>
<path d="M1500 2434 c-15 -38 -12 -42 10 -14 17 22 20 23 20 6 0 -11 3 -17 6
-13 8 8 -5 47 -17 47 -5 0 -14 -12 -19 -26z"/>
<path d="M1685 2450 c-3 -5 -1 -10 4 -10 6 0 11 5 11 10 0 6 -2 10 -4 10 -3 0
-8 -4 -11 -10z"/>
<path d="M2690 2440 c0 -5 5 -10 10 -10 6 0 10 5 10 10 0 6 -4 10 -10 10 -5 0
-10 -4 -10 -10z"/>
<path d="M1761 2431 c-8 -6 -9 -11 -3 -15 6 -3 14 -1 17 5 9 14 2 20 -14 10z"/>
<path d="M1667 2413 c-4 -3 -7 -13 -7 -22 0 -10 3 -12 8 -5 4 6 16 16 27 22
20 11 20 11 -1 12 -11 0 -24 -3 -27 -7z"/>
<path d="M2475 2391 c-28 -16 -57 -36 -64 -45 -7 -9 -18 -16 -23 -16 -6 0 -5
7 2 15 7 9 10 18 8 21 -10 10 -66 -68 -61 -83 4 -11 10 -7 19 13 15 34 17 23
5 -28 -10 -44 -2 -48 36 -18 19 15 21 20 9 20 -9 0 -16 -4 -16 -10 0 -5 -5
-10 -11 -10 -7 0 -9 10 -4 28 10 40 22 48 43 29 24 -22 35 -21 55 1 21 23 22
42 1 42 -8 0 -13 -4 -10 -9 3 -5 -2 -8 -12 -7 -9 0 -16 -5 -14 -12 1 -8 -2
-11 -7 -7 -13 8 -2 35 14 35 6 0 20 9 30 20 26 29 35 25 29 -12 l-5 -33 17 30
c9 17 21 33 27 36 10 7 1 29 -11 29 -4 0 -30 -13 -57 -29z"/>
<path d="M2890 2401 c0 -5 5 -13 10 -16 6 -3 10 -2 10 4 0 5 -4 13 -10 16 -5
3 -10 2 -10 -4z"/>
<path d="M1500 2380 c-9 -16 -8 -21 4 -26 9 -3 12 -12 8 -22 -5 -16 -5 -16 11
0 9 9 17 21 17 26 0 5 6 15 14 21 11 10 15 9 19 -4 4 -12 5 -11 3 2 -2 28 -61
30 -76 3z m30 -10 c0 -5 -4 -10 -10 -10 -5 0 -10 5 -10 10 0 6 5 10 10 10 6 0
10 -4 10 -10z"/>
<path d="M1597 2388 c-3 -10 0 -19 9 -22 18 -7 18 -40 -1 -56 -15 -13 -19 -8
-16 23 3 23 -15 22 -22 -3 -3 -10 1 -24 9 -31 8 -6 12 -15 9 -19 -3 -5 0 -12
7 -16 7 -4 10 -4 6 1 -13 14 13 46 48 61 19 8 34 20 34 26 0 9 -3 9 -12 0 -14
-14 -38 2 -38 25 0 8 -4 12 -9 9 -5 -4 -11 -1 -13 6 -3 8 -7 6 -11 -4z"/>
<path d="M2003 2393 c-13 -2 -23 -9 -23 -14 0 -13 13 -11 36 6 10 8 17 14 14
13 -3 0 -15 -3 -27 -5z"/>
<path d="M2982 2378 c2 -13 16 -41 31 -63 33 -47 32 -21 -1 43 -25 47 -34 53
-30 20z"/>
<path d="M3030 2378 c0 -10 5 -18 10 -18 6 0 10 5 10 10 0 6 7 10 15 10 8 0
15 3 15 8 0 4 -11 7 -25 7 -17 0 -25 -5 -25 -17z"/>
<path d="M1753 2379 c-16 -16 21 -65 53 -73 13 -4 24 -11 24 -16 0 -6 15 -27
33 -47 19 -21 44 -59 56 -84 20 -43 47 -67 116 -106 11 -6 19 -17 19 -26 -1
-8 6 -14 14 -13 10 1 24 -21 40 -59 25 -62 89 -151 101 -140 3 4 -2 13 -13 20
-10 8 -16 18 -13 22 3 5 -7 22 -24 37 -16 15 -29 35 -29 45 0 9 -7 27 -16 39
-8 12 -12 22 -9 22 4 0 -1 7 -9 16 -9 8 -16 21 -16 27 0 7 7 4 14 -5 7 -10 19
-18 26 -18 9 0 5 9 -9 23 -13 15 -19 30 -15 41 6 16 8 15 26 -3 23 -26 30 -26
53 -1 10 11 24 20 32 20 17 0 9 35 -13 61 -13 15 -80 19 -102 6 -5 -4 -17 2
-27 13 -19 21 -60 27 -70 10 -3 -5 1 -10 10 -10 9 0 13 -4 10 -10 -3 -5 -2
-10 4 -10 5 0 11 5 13 12 3 8 6 9 11 1 4 -6 -12 -18 -39 -28 -37 -14 -48 -15
-57 -5 -9 9 -9 11 -1 7 7 -4 14 0 18 8 4 10 -1 15 -14 15 -19 0 -45 32 -34 42
8 9 -18 58 -29 51 -5 -3 -3 -9 4 -14 8 -5 9 -9 3 -9 -18 0 -37 28 -28 41 4 8
3 9 -4 5 -11 -6 -62 62 -62 83 0 5 -7 12 -16 15 -20 8 -18 8 -31 -5z m401
-226 c15 -4 10 -11 -28 -34 -26 -16 -49 -36 -52 -44 -9 -23 -27 -18 -21 5 3
11 1 20 -4 20 -5 0 -9 -4 -9 -9 0 -11 -39 -6 -52 7 -5 5 8 20 27 34 35 25 94
34 139 21z m16 -42 c0 -13 -28 -22 -35 -11 -3 4 1 11 7 13 20 8 28 8 28 -2z"/>
<path d="M2561 2368 c-1 -26 -70 -98 -87 -91 -8 3 -14 0 -14 -5 0 -6 -8 -13
-17 -15 -12 -3 -9 -5 8 -6 52 -2 132 82 116 121 -4 8 -6 7 -6 -4z"/>
<path d="M1696 2336 c-7 -38 -42 -59 -57 -35 -6 10 -8 7 -6 -9 1 -19 6 -23 24
-19 25 5 29 -3 11 -21 -7 -7 -8 -12 -2 -12 6 0 23 23 38 51 24 45 26 54 13 66
-13 13 -15 10 -21 -21z"/>
<path d="M1945 2350 c-3 -5 -1 -10 4 -10 6 0 11 5 11 10 0 6 -2 10 -4 10 -3 0
-8 -4 -11 -10z"/>
<path d="M1855 2330 c-3 -5 -1 -10 4 -10 6 0 11 5 11 10 0 6 -2 10 -4 10 -3 0
-8 -4 -11 -10z"/>
<path d="M2930 2336 c0 -2 7 -6 15 -10 8 -3 15 -1 15 4 0 6 -7 10 -15 10 -8 0
-15 -2 -15 -4z"/>
<path d="M2187 2318 c-3 -10 0 -19 8 -22 15 -5 31 11 21 21 -3 4 -6 0 -7 -8 0
-8 -3 -6 -8 5 -6 17 -8 17 -14 4z"/>
<path d="M3858 2323 c7 -3 16 -2 19 1 4 3 -2 6 -13 5 -11 0 -14 -3 -6 -6z"/>
<path d="M1910 2305 c-7 -9 -11 -17 -9 -20 3 -2 10 5 17 15 14 24 10 26 -8 5z"/>
<path d="M2958 2283 c7 -3 16 -2 19 1 4 3 -2 6 -13 5 -11 0 -14 -3 -6 -6z"/>
<path d="M2175 2271 c-3 -5 -1 -12 4 -15 5 -3 11 1 15 9 6 16 -9 21 -19 6z"/>
<path d="M2215 2270 c3 -5 8 -10 11 -10 2 0 4 5 4 10 0 6 -5 10 -11 10 -5 0
-7 -4 -4 -10z"/>
<path d="M2268 2262 c-15 -16 -14 -17 18 -18 36 -1 41 5 22 24 -15 15 -19 15
-40 -6z"/>
<path d="M3068 2274 c-7 -6 -5 -17 9 -51 21 -56 26 -102 13 -118 -10 -12 -10
-15 0 -15 14 0 8 -97 -8 -127 -5 -10 -13 -37 -17 -60 -4 -24 -11 -45 -15 -48
-5 -3 -14 -22 -21 -43 -20 -62 -60 -145 -86 -180 -17 -23 -22 -37 -15 -44 7
-7 12 -3 17 11 3 12 11 21 16 21 5 0 9 5 9 11 0 6 13 39 29 73 100 210 134
350 111 460 -14 68 -34 119 -42 110z"/>
<path d="M2980 2260 c0 -5 5 -10 11 -10 5 0 7 5 4 10 -3 6 -8 10 -11 10 -2 0
-4 -4 -4 -10z"/>
<path d="M2951 2248 c-1 -28 10 -48 28 -48 11 0 12 3 4 8 -7 4 -16 19 -22 32
-6 16 -10 19 -10 8z"/>
<path d="M2210 2239 c0 -5 5 -7 10 -4 6 3 10 8 10 11 0 2 -4 4 -10 4 -5 0 -10
-5 -10 -11z"/>
<path d="M2418 2233 c7 -3 16 -2 19 1 4 3 -2 6 -13 5 -11 0 -14 -3 -6 -6z"/>
<path d="M2300 2210 c0 -5 11 -10 25 -10 14 0 25 5 25 10 0 6 -11 10 -25 10
-14 0 -25 -4 -25 -10z"/>
<path d="M2388 2193 c7 -3 16 -2 19 1 4 3 -2 6 -13 5 -11 0 -14 -3 -6 -6z"/>
<path d="M2988 2184 c-12 -11 -10 -46 2 -39 6 3 10 -1 10 -9 0 -9 5 -16 10
-16 12 0 13 13 1 26 -5 5 -11 17 -13 27 -1 11 -6 15 -10 11z"/>
<path d="M3052 2130 c0 -14 2 -19 5 -12 2 6 2 18 0 25 -3 6 -5 1 -5 -13z"/>
<path d="M2598 2123 c6 -2 18 -2 25 0 6 3 1 5 -13 5 -14 0 -19 -2 -12 -5z"/>
<path d="M2690 2090 c0 -5 5 -10 11 -10 5 0 7 5 4 10 -3 6 -8 10 -11 10 -2 0
-4 -4 -4 -10z"/>
<path d="M2193 2067 c-12 -14 -18 -28 -15 -32 4 -4 -4 -4 -18 0 -23 7 -24 6
-6 -7 18 -14 18 -15 -5 -23 l-24 -8 24 -4 c17 -3 29 1 38 14 7 10 17 24 23 31
6 7 10 22 8 33 -3 20 -4 20 -25 -4z"/>
<path d="M2498 2063 c7 -3 16 -2 19 1 4 3 -2 6 -13 5 -11 0 -14 -3 -6 -6z"/>
<path d="M3030 2050 c0 -11 4 -20 8 -20 4 0 8 9 8 20 0 11 -4 20 -8 20 -4 0
-8 -9 -8 -20z"/>
<path d="M2428 2053 c-10 -2 -18 -9 -18 -14 0 -14 16 -11 30 6 7 8 11 14 9 14
-2 -1 -12 -3 -21 -6z"/>
<path d="M2550 2050 c19 -13 30 -13 30 0 0 6 -10 10 -22 10 -19 0 -20 -2 -8
-10z"/>
<path d="M1210 2029 c0 -5 5 -7 10 -4 6 3 10 8 10 11 0 2 -4 4 -10 4 -5 0 -10
-5 -10 -11z"/>
<path d="M2495 2024 c10 -10 15 -29 13 -48 -3 -29 -6 -31 -50 -36 -26 -3 -56
-14 -67 -24 -30 -28 -19 -30 22 -6 20 12 41 19 47 15 19 -12 80 6 80 24 0 14
-2 14 -10 1 -6 -9 -10 -10 -10 -3 0 6 4 14 9 17 20 13 -10 76 -36 76 -12 0
-12 -3 2 -16z"/>
<path d="M2590 2030 c0 -5 5 -10 12 -10 6 0 20 -7 30 -17 15 -14 18 -14 18 -1
0 8 -11 20 -25 26 -32 15 -35 15 -35 2z"/>
<path d="M3550 1994 c24 -54 26 -138 5 -185 l-14 -34 -2 50 -2 50 -7 -40 c-11
-60 -43 -133 -73 -165 -15 -15 -27 -37 -27 -47 0 -10 -9 -24 -19 -30 -15 -9
-21 -29 -26 -80 -8 -82 -13 -103 -26 -103 -6 0 -7 5 -3 12 4 7 3 8 -4 4 -7 -4
-12 -14 -12 -22 0 -8 -4 -12 -10 -9 -5 3 -10 -4 -10 -16 0 -17 3 -19 14 -10
11 9 15 7 19 -11 7 -26 -1 -38 -12 -19 -5 8 -11 9 -14 4 -8 -13 38 -37 52 -28
6 3 9 11 6 16 -9 13 9 11 24 -3 11 -11 12 -9 2 9 -8 17 -8 22 5 27 8 3 13 10
10 15 -4 5 1 17 11 26 9 9 18 27 19 39 4 40 5 41 14 21 9 -18 9 -18 8 5 -2 44
2 61 12 55 6 -3 10 1 10 10 0 9 9 28 20 42 22 29 27 67 8 61 -15 -5 -148 -269
-141 -280 2 -4 -3 -5 -11 -2 -9 3 -16 7 -16 8 0 0 31 65 69 143 63 128 72 142
100 148 31 7 39 19 22 29 -5 4 -11 2 -13 -2 -1 -5 -16 -15 -32 -23 -17 -8 -39
-32 -51 -57 -26 -51 -55 -84 -55 -62 1 18 25 52 32 44 3 -3 9 11 12 32 4 20
10 34 13 30 8 -7 33 20 33 36 0 11 2 11 9 0 6 -11 10 -11 19 0 19 24 62 150
62 184 0 25 4 34 16 34 13 0 14 3 5 14 -7 8 -13 22 -16 32 -2 11 -6 28 -10 39
-3 11 3 3 14 -17 20 -36 41 -57 41 -41 0 27 -70 112 -92 113 -4 0 2 -21 12
-46z m-23 -236 c-3 -8 -6 -5 -6 6 -1 11 2 17 5 13 3 -3 4 -12 1 -19z m-7 -39
c-7 -11 -14 -18 -17 -15 -3 3 0 12 7 21 18 21 23 19 10 -6z"/>
<path d="M2227 2023 c-9 -15 -19 -78 -12 -71 4 3 10 23 15 42 8 34 6 45 -3 29z"/>
<path d="M2390 2009 c0 -5 5 -7 10 -4 6 3 10 8 10 11 0 2 -4 4 -10 4 -5 0 -10
-5 -10 -11z"/>
<path d="M3610 2011 c0 -5 14 -11 30 -13 35 -5 41 7 8 16 -31 8 -38 7 -38 -3z"/>
<path d="M2305 2000 c-3 -5 -1 -10 4 -10 6 0 11 5 11 10 0 6 -2 10 -4 10 -3 0
-8 -4 -11 -10z"/>
<path d="M3035 2000 c-3 -5 -1 -10 4 -10 6 0 11 5 11 10 0 6 -2 10 -4 10 -3 0
-8 -4 -11 -10z"/>
<path d="M3381 1987 c-7 -14 -11 -31 -8 -39 3 -7 6 -4 6 9 1 12 6 23 13 25 6
2 9 10 7 17 -3 8 -10 4 -18 -12z"/>
<path d="M3695 1988 c11 -7 42 -12 68 -12 43 0 47 -1 31 -13 -17 -12 -17 -13
3 -13 12 0 23 6 25 12 4 10 10 10 29 2 24 -11 276 -10 287 1 3 3 -35 5 -84 6
-49 1 -102 2 -119 4 -16 2 -65 5 -107 7 -43 1 -78 6 -78 11 0 4 -17 7 -37 7
-34 -1 -36 -2 -18 -12z"/>
<path d="M3510 1955 c0 -8 2 -15 4 -15 2 0 6 7 10 15 3 8 1 15 -4 15 -6 0 -10
-7 -10 -15z"/>
<path d="M4155 1960 c-3 -5 -1 -10 4 -10 6 0 11 5 11 10 0 6 -2 10 -4 10 -3 0
-8 -4 -11 -10z"/>
<path d="M3311 1944 c-1 -11 -10 -29 -21 -39 -22 -20 -26 -35 -8 -35 6 0 9 3
5 6 -3 3 5 16 17 28 17 15 21 26 15 41 -7 20 -8 20 -8 -1z"/>
<path d="M3670 1951 c0 -4 19 -8 43 -8 30 0 37 2 22 8 -27 11 -65 11 -65 0z"/>
<path d="M4195 1946 c13 -10 25 -11 37 -5 21 11 71 12 64 0 -3 -4 7 -6 22 -3
24 5 24 6 7 13 -11 4 -49 8 -84 8 -58 1 -63 0 -46 -13z"/>
<path d="M3180 1929 c-6 -11 -10 -25 -8 -30 2 -5 8 4 15 21 13 34 9 40 -7 9z"/>
<path d="M4385 1930 c-16 -8 -14 -9 13 -5 19 3 31 1 27 -5 -3 -5 10 -6 31 -3
30 5 36 3 32 -9 -4 -8 2 -20 14 -27 27 -17 37 -5 12 14 -18 14 -17 14 8 6 32
-12 67 -32 86 -48 7 -7 22 -13 32 -13 11 0 23 -7 28 -15 5 -10 15 -13 26 -9
14 5 -10 21 -95 62 -114 55 -177 70 -214 52z"/>
<path d="M3672 1905 c3 -13 1 -26 -4 -29 -5 -2 -3 -3 4 -2 17 3 23 56 7 56 -7
0 -9 -10 -7 -25z"/>
<path d="M2472 1890 c-37 -34 -52 -38 -52 -12 -1 16 -2 16 -15 -1 -14 -19 -82
-26 -124 -12 -12 3 -21 2 -21 -4 0 -11 39 -41 55 -41 5 0 4 4 -3 9 -10 6 -8
10 8 14 16 4 24 1 27 -14 3 -10 9 -17 13 -14 4 2 6 -17 5 -43 -3 -42 -2 -44 8
-22 6 14 16 28 22 32 6 5 5 8 -2 8 -7 0 -13 5 -13 11 0 5 5 7 10 4 6 -3 10 -2
10 4 0 5 -8 15 -17 20 -10 6 -16 11 -13 11 46 10 50 9 50 -10 0 -12 7 -20 16
-20 10 0 14 5 10 16 -4 10 9 29 37 54 23 22 38 40 32 40 -5 -1 -25 -14 -43
-30z"/>
<path d="M2658 1914 c-2 -1 -17 -4 -33 -7 -19 -2 -31 -10 -33 -21 -3 -15 -1
-16 18 -6 18 10 24 9 31 -1 7 -11 9 -11 9 2 0 13 8 17 33 15 17 0 36 -5 40
-11 5 -6 7 -4 5 5 -4 12 -62 33 -70 24z"/>
<path d="M4360 1900 c0 -5 5 -10 11 -10 5 0 7 5 4 10 -3 6 -8 10 -11 10 -2 0
-4 -4 -4 -10z"/>
<path d="M3333 1885 c0 -21 20 -25 37 -7 13 14 12 15 -3 9 -9 -3 -17 -2 -17 3
0 6 -4 10 -8 10 -5 0 -9 -7 -9 -15z"/>
<path d="M3850 1896 c0 -2 9 -6 20 -9 11 -3 18 -1 14 4 -5 9 -34 13 -34 5z"/>
<path d="M4160 1890 c-12 -8 -11 -10 8 -10 12 0 22 5 22 10 0 13 -11 13 -30 0z"/>
<path d="M2540 1880 c0 -6 -6 -10 -12 -8 -7 1 -26 -6 -43 -15 -19 -11 -22 -16
-10 -13 11 2 37 7 58 11 22 3 37 11 35 17 -6 16 -28 22 -28 8z"/>
<path d="M3604 1866 c-9 -20 -9 -23 2 -19 8 3 14 14 14 24 0 25 -3 24 -16 -5z"/>
<path d="M4250 1871 c0 -5 -8 -11 -17 -13 -16 -3 -16 -4 -2 -10 9 -4 20 1 27
13 8 12 8 19 2 19 -5 0 -10 -4 -10 -9z"/>
<path d="M2674 1858 c-3 -4 0 -8 7 -8 7 0 9 -3 5 -7 -3 -4 -37 -7 -74 -8 -76
-2 -152 -20 -152 -37 0 -7 4 -7 13 0 19 16 79 23 112 13 25 -8 26 -9 8 -10
-20 -1 -48 -19 -89 -58 -18 -18 -31 -16 -54 7 -13 13 -26 17 -37 13 -16 -7
-16 -8 2 -11 43 -9 58 -36 25 -47 -11 -4 -18 -11 -15 -16 4 -5 1 -9 -5 -9 -7
0 -10 -7 -6 -15 3 -9 0 -15 -10 -15 -8 0 -20 13 -25 30 -6 16 -15 27 -21 24
-5 -3 -18 3 -29 15 -11 12 -24 21 -30 21 -6 0 -8 4 -5 9 5 8 -43 35 -50 29 -9
-9 178 -164 228 -189 32 -16 60 -29 63 -29 16 0 -10 21 -51 40 -43 21 -46 25
-40 53 5 26 46 80 46 62 0 -4 17 7 38 23 46 36 185 104 203 99 8 -2 11 -2 6 0
-4 3 -5 8 -2 13 3 4 -9 10 -26 12 -16 3 -32 1 -35 -4z"/>
<path d="M3010 1854 c0 -8 5 -12 10 -9 6 4 8 11 5 16 -9 14 -15 11 -15 -7z"/>
<path d="M3247 1863 c-4 -3 -7 -11 -7 -17 0 -6 5 -5 12 2 6 6 9 14 7 17 -3 3
-9 2 -12 -2z"/>
<path d="M4490 1860 c0 -5 5 -10 11 -10 5 0 7 5 4 10 -3 6 -8 10 -11 10 -2 0
-4 -4 -4 -10z"/>
<path d="M3300 1827 c-37 -44 -41 -54 -25 -54 8 0 17 9 21 19 3 10 10 18 16
18 6 0 8 3 5 7 -4 3 -2 12 5 20 6 7 9 15 7 17 -2 2 -15 -10 -29 -27z"/>
<path d="M4320 1845 c0 -8 2 -15 4 -15 2 0 6 7 10 15 3 8 1 15 -4 15 -6 0 -10
-7 -10 -15z"/>
<path d="M3374 1806 c2 -25 -1 -46 -6 -46 -5 0 -6 -5 -3 -10 15 -24 -7 -47
-55 -59 -28 -7 -50 -17 -50 -22 0 -5 -17 -9 -37 -10 -28 0 -33 -2 -19 -8 18
-7 18 -8 -5 -30 -13 -12 -18 -21 -10 -19 8 2 24 13 36 24 22 24 87 54 116 54
29 0 51 54 46 112 -6 63 -18 76 -13 14z"/>
<path d="M3876 1835 c-18 -14 -18 -14 1 -12 11 0 20 7 20 14 0 7 -1 13 -1 13
-1 0 -9 -7 -20 -15z"/>
<path d="M3668 1823 c7 -3 16 -2 19 1 4 3 -2 6 -13 5 -11 0 -14 -3 -6 -6z"/>
<path d="M4455 1810 c10 -11 25 -20 34 -20 12 1 10 5 -8 20 -30 26 -49 26 -26
0z"/>
<path d="M3607 1800 c-3 -11 -1 -20 4 -20 5 0 9 9 9 20 0 11 -2 20 -4 20 -2 0
-6 -9 -9 -20z"/>
<path d="M4715 1800 c-3 -5 1 -10 9 -10 14 0 21 -19 17 -43 -1 -5 4 -7 11 -5
13 5 58 -30 58 -45 0 -5 -10 -7 -21 -4 -18 5 -19 4 -8 -6 7 -7 19 -19 26 -27
11 -13 12 -13 7 3 -7 20 11 23 19 3 3 -8 -1 -20 -9 -27 -12 -10 -12 -14 -2
-20 20 -13 27 31 10 66 -18 36 -91 125 -102 125 -5 0 -12 -4 -15 -10z"/>
<path d="M2171 1726 c-71 -109 -74 -140 -26 -280 35 -104 66 -167 51 -105 -5
24 -1 28 53 53 32 14 68 26 80 26 21 0 29 14 13 24 -4 2 -39 -11 -77 -29 -39
-19 -73 -34 -77 -35 -3 0 -18 36 -33 81 -39 117 -33 167 30 260 26 38 45 72
42 75 -3 4 -28 -28 -56 -70z"/>
<path d="M4622 1780 c0 -14 2 -19 5 -12 2 6 2 18 0 25 -3 6 -5 1 -5 -13z"/>
<path d="M3170 1780 c0 -5 5 -10 11 -10 5 0 7 5 4 10 -3 6 -8 10 -11 10 -2 0
-4 -4 -4 -10z"/>
<path d="M3768 1783 c6 -2 18 -2 25 0 6 3 1 5 -13 5 -14 0 -19 -2 -12 -5z"/>
<path d="M3127 1760 c-15 -17 -14 -19 3 -17 11 1 22 7 24 14 8 21 -9 23 -27 3z"/>
<path d="M4568 1773 c7 -3 16 -2 19 1 4 3 -2 6 -13 5 -11 0 -14 -3 -6 -6z"/>
<path d="M3767 1763 c-10 -9 -9 -23 1 -23 5 0 9 7 9 15 0 17 -1 18 -10 8z"/>
<path d="M4355 1745 c0 -14 3 -25 8 -25 4 0 7 11 7 25 0 14 -3 25 -7 25 -5 0
-8 -11 -8 -25z"/>
<path d="M3222 1740 c-25 -23 -27 -35 -10 -46 6 -4 8 -3 5 3 -4 6 5 22 20 37
30 30 17 36 -15 6z"/>
<path d="M4532 1749 c2 -6 8 -10 13 -10 5 0 11 4 13 10 2 6 -4 11 -13 11 -9 0
-15 -5 -13 -11z"/>
<path d="M2805 1740 c4 -6 11 -8 16 -5 14 9 11 15 -7 15 -8 0 -12 -5 -9 -10z"/>
<path d="M2920 1739 c0 -5 5 -7 10 -4 6 3 10 8 10 11 0 2 -4 4 -10 4 -5 0 -10
-5 -10 -11z"/>
<path d="M3580 1740 c0 -5 5 -10 10 -10 6 0 10 5 10 10 0 6 -4 10 -10 10 -5 0
-10 -4 -10 -10z"/>
<path d="M4401 1734 c0 -11 3 -14 6 -6 3 7 2 16 -1 19 -3 4 -6 -2 -5 -13z"/>
<path d="M3755 1720 c-3 -5 -1 -10 4 -10 6 0 11 5 11 10 0 6 -2 10 -4 10 -3 0
-8 -4 -11 -10z"/>
<path d="M4454 1716 c-10 -8 -17 -17 -14 -19 3 -3 14 1 24 9 11 7 17 16 15 19
-3 3 -14 -2 -25 -9z"/>
<path d="M4635 1720 c-3 -5 -4 -14 -1 -19 4 -5 0 -11 -6 -14 -7 -2 0 -4 16 -4
22 0 25 2 13 9 -9 4 -14 15 -11 23 7 17 -2 20 -11 5z"/>
<path d="M2391 1704 c0 -11 3 -14 6 -6 3 7 2 16 -1 19 -3 4 -6 -2 -5 -13z"/>
<path d="M4515 1710 c3 -5 8 -10 11 -10 2 0 4 5 4 10 0 6 -5 10 -11 10 -5 0
-7 -4 -4 -10z"/>
<path d="M4745 1710 c4 -6 11 -8 16 -5 14 9 11 15 -7 15 -8 0 -12 -5 -9 -10z"/>
<path d="M3396 1695 c-9 -26 -7 -32 5 -12 6 10 9 21 6 23 -2 3 -7 -2 -11 -11z"/>
<path d="M4393 1683 c-26 -99 15 -581 73 -856 8 -38 14 -71 15 -75 0 -4 5 4
10 18 7 17 7 26 0 28 -14 5 -14 42 0 42 5 0 7 5 4 10 -4 6 -10 8 -15 5 -5 -3
-8 13 -8 35 0 31 4 40 14 36 8 -3 14 -1 14 4 0 9 -14 14 -32 11 -5 0 -8 12 -8
29 0 20 5 30 15 30 18 0 20 26 3 36 -8 5 -9 2 -5 -9 4 -11 1 -17 -9 -17 -9 0
-14 8 -13 18 1 9 0 19 -1 22 -1 3 -3 19 -5 37 -2 25 1 30 13 25 9 -3 6 4 -7
17 -19 19 -22 29 -16 58 3 19 2 33 -2 30 -5 -3 -8 20 -8 51 0 31 -3 62 -7 67
-4 6 -2 30 3 54 7 32 7 46 -2 51 -18 11 -21 90 -3 90 9 0 14 10 14 27 0 26 -1
26 -15 7 -16 -21 -16 -23 -1 75 3 15 0 33 -7 40 -8 8 -8 11 1 11 7 0 12 5 12
10 0 22 -20 8 -27 -17z"/>
<path d="M3050 1690 c-8 -5 -13 -10 -10 -11 3 0 15 -2 27 -5 12 -2 23 2 27 11
6 17 -20 20 -44 5z"/>
<path d="M3118 1693 c7 -3 16 -2 19 1 4 3 -2 6 -13 5 -11 0 -14 -3 -6 -6z"/>
<path d="M3680 1686 c0 -7 -10 -16 -22 -19 -12 -4 -19 -9 -16 -12 9 -9 45 12
52 30 3 8 1 15 -4 15 -6 0 -10 -6 -10 -14z"/>
<path d="M2581 1670 c-19 -11 -38 -25 -42 -31 -4 -7 -22 -10 -43 -7 -20 2 -32
0 -28 -4 5 -5 22 -10 38 -11 16 -1 32 -6 36 -12 5 -6 8 -3 8 7 0 25 37 41 76
33 33 -6 48 8 22 18 -10 4 -10 6 0 6 6 1 12 6 12 11 0 16 -42 11 -79 -10z"/>
<path d="M2900 1680 c0 -5 5 -10 11 -10 5 0 7 5 4 10 -3 6 -8 10 -11 10 -2 0
-4 -4 -4 -10z"/>
<path d="M4741 1674 c0 -11 3 -14 6 -6 3 7 2 16 -1 19 -3 4 -6 -2 -5 -13z"/>
<path d="M3115 1670 c-3 -5 -1 -10 4 -10 6 0 11 5 11 10 0 6 -2 10 -4 10 -3 0
-8 -4 -11 -10z"/>
<path d="M2920 1649 c0 -5 5 -7 10 -4 6 3 10 8 10 11 0 2 -4 4 -10 4 -5 0 -10
-5 -10 -11z"/>
<path d="M3320 1645 c0 -10 11 -15 35 -15 34 0 46 12 25 25 -5 3 -10 2 -10 -4
0 -7 -8 -7 -25 -1 -20 7 -25 6 -25 -5z"/>
<path d="M4860 1645 c1 -16 40 -58 47 -51 4 4 -5 19 -20 34 -15 14 -27 22 -27
17z"/>
<path d="M2582 1618 c-7 -7 -12 -15 -12 -20 0 -12 28 2 34 18 7 17 -6 18 -22
2z"/>
<path d="M3287 1623 c-3 -5 -8 -34 -11 -66 -5 -40 -11 -55 -19 -50 -7 4 -5 -2
3 -13 8 -10 15 -20 16 -22 0 -1 1 11 2 28 0 17 7 44 16 60 8 17 10 27 4 24 -7
-5 -9 2 -4 20 6 25 2 35 -7 19z"/>
<path d="M2705 1610 c3 -5 8 -10 11 -10 2 0 4 5 4 10 0 6 -5 10 -11 10 -5 0
-7 -4 -4 -10z"/>
<path d="M4316 1611 c-3 -5 1 -11 9 -14 9 -4 12 -1 8 9 -6 16 -10 17 -17 5z"/>
<path d="M3230 1603 c0 -4 5 -15 10 -23 8 -13 10 -13 10 2 0 9 -4 20 -10 23
-5 3 -10 3 -10 -2z"/>
<path d="M2820 1579 c0 -5 5 -7 10 -4 6 3 10 8 10 11 0 2 -4 4 -10 4 -5 0 -10
-5 -10 -11z"/>
<path d="M2888 1571 c-9 -10 -24 -23 -34 -29 -17 -10 -17 -12 6 -31 14 -12 59
-38 100 -58 82 -41 187 -56 229 -34 20 11 21 10 21 -46 0 -61 30 -180 75 -298
14 -38 27 -74 29 -80 1 -5 7 -19 13 -30 6 -11 11 -22 10 -25 0 -3 10 -36 23
-75 24 -72 27 -79 33 -105 5 -22 27 -92 37 -115 11 -27 50 -146 55 -167 2 -9
9 -26 15 -37 6 -12 8 -21 5 -21 -3 0 4 -18 15 -40 11 -22 18 -40 15 -40 -3 0
3 -17 14 -39 11 -21 17 -41 14 -45 -4 -3 0 -6 7 -6 7 0 11 -3 7 -6 -3 -4 0
-19 9 -35 8 -16 15 -32 15 -36 4 -26 62 -157 73 -165 17 -12 26 -9 26 8 0 8
-4 12 -10 9 -6 -3 -7 1 -4 9 4 9 1 16 -6 16 -7 0 -10 7 -6 15 3 8 1 15 -4 15
-5 0 -13 18 -16 40 -4 22 -10 38 -14 35 -4 -2 -12 20 -19 50 -7 29 -19 59 -27
65 -7 7 -14 21 -14 31 0 11 -5 19 -11 19 -6 0 -9 7 -5 15 7 19 -3 47 -15 39
-5 -3 -6 2 -3 10 3 9 1 16 -6 16 -6 0 -9 4 -6 8 8 13 -19 94 -29 85 -4 -4 -5
0 -1 11 3 10 2 24 -3 30 -5 6 -9 13 -10 16 0 6 -9 36 -23 72 -5 15 -7 32 -3
37 3 6 1 11 -5 11 -6 0 -8 5 -5 10 3 6 2 10 -3 10 -6 0 -13 7 -16 16 -3 8 -2
12 4 9 15 -9 12 12 -5 28 -8 8 -11 17 -8 21 4 3 2 6 -3 6 -6 0 -11 19 -13 41
-1 28 -9 48 -24 61 -12 11 -16 16 -8 12 10 -5 12 -3 5 7 -4 8 -9 25 -10 39 -1
13 -6 26 -12 28 -6 2 -8 10 -5 19 4 11 2 14 -5 9 -8 -4 -10 -2 -6 7 3 8 0 18
-5 22 -6 3 -9 11 -5 16 3 5 0 8 -7 7 -9 -2 -13 8 -11 32 1 28 0 31 -7 15 -9
-18 -10 -18 -10 -2 -1 10 -8 32 -17 48 -14 28 -14 32 0 48 18 20 20 31 6 31
-5 0 -10 -7 -10 -15 0 -24 -16 -17 -17 7 -1 12 3 26 10 31 8 6 4 7 -10 4 -29
-6 -29 7 -1 27 12 9 18 19 14 23 -4 4 -11 1 -16 -7 -6 -8 -10 -12 -11 -7 -3
13 -6 22 -18 51 -6 16 -9 36 -7 45 20 67 12 191 -10 168 -4 -3 -3 -12 3 -19
13 -18 1 -72 -17 -76 -49 -11 -102 -13 -113 -4 -7 6 -18 7 -26 2 -16 -9 -93
20 -117 45 -9 8 -24 15 -35 15 -13 0 -18 4 -13 12 4 7 3 8 -4 4 -7 -4 -12 -1
-12 8 0 9 4 16 9 16 8 0 23 41 18 47 -2 1 -10 -6 -19 -16z"/>
<path d="M3320 1581 c0 -4 11 -6 25 -3 14 2 25 6 25 8 0 2 -11 4 -25 4 -14 0
-25 -4 -25 -9z"/>
<path d="M4055 1580 c3 -5 8 -10 11 -10 2 0 4 5 4 10 0 6 -5 10 -11 10 -5 0
-7 -4 -4 -10z"/>
<path d="M4907 1583 c-15 -14 -6 -32 13 -28 13 2 20 -2 20 -11 0 -8 13 -29 29
-46 16 -18 27 -38 24 -47 -4 -14 -4 -14 6 -1 10 14 16 7 12 -13 -1 -5 3 -6 9
-2 5 3 10 1 10 -5 0 -6 5 -8 10 -5 6 3 10 -1 10 -9 0 -9 5 -16 10 -16 6 0 10
-6 10 -14 0 -12 20 -26 36 -26 6 0 -54 77 -86 111 -14 14 -41 46 -60 72 -36
47 -42 52 -53 40z"/>
<path d="M2683 1563 c-17 -6 -17 -20 0 -26 8 -3 13 3 13 14 0 11 0 19 -1 18 0
0 -6 -3 -12 -6z"/>
<path d="M4147 1556 c-4 -10 -1 -13 8 -9 8 3 12 9 9 14 -7 12 -11 11 -17 -5z"/>
<path d="M2494 1522 c-17 -15 -56 -36 -88 -46 -31 -11 -56 -23 -56 -29 0 -5 7
-6 16 -3 8 3 12 2 9 -4 -10 -17 7 -11 20 7 7 9 21 17 31 18 10 1 29 6 40 13
12 6 25 8 29 4 5 -4 5 -1 1 6 -4 6 -2 12 4 12 6 0 9 4 5 9 -3 5 -1 12 4 15 5
3 12 -1 15 -10 3 -8 9 -13 14 -10 4 2 14 0 22 -5 13 -8 12 -12 -4 -24 -11 -8
-16 -15 -11 -15 11 0 -32 -40 -61 -56 -21 -12 -32 -54 -14 -54 6 0 8 5 5 10
-3 6 -2 10 4 10 6 0 8 7 5 15 -4 10 -2 13 8 10 9 -4 24 7 39 26 13 18 30 38
37 45 17 17 15 40 -5 64 -23 26 -32 25 -69 -8z"/>
<path d="M4768 1533 c5 -10 12 -33 16 -51 3 -19 17 -57 32 -85 14 -30 26 -72
28 -99 2 -53 15 -77 17 -32 4 102 2 130 -16 147 -8 8 -11 18 -7 21 3 4 -2 4
-12 0 -14 -5 -17 -4 -12 5 4 6 4 25 1 43 -5 22 -9 27 -16 17 -6 -10 -9 -7 -10
11 -1 14 -1 28 0 33 0 4 -6 7 -14 7 -12 0 -13 -5 -7 -17z m78 -150 c-4 -4 -11
-1 -16 7 -16 25 -11 35 7 17 9 -9 13 -20 9 -24z"/>
<path d="M4838 1543 c7 -3 16 -2 19 1 4 3 -2 6 -13 5 -11 0 -14 -3 -6 -6z"/>
<path d="M3361 1518 c0 -9 -4 -25 -7 -35 -5 -14 -4 -15 5 -7 7 7 11 22 8 35
-2 13 -5 16 -6 7z"/>
<path d="M2800 1509 c0 -5 -4 -7 -10 -4 -5 3 -10 1 -10 -6 0 -10 -3 -10 -12
-1 -14 14 -38 16 -38 4 0 -5 11 -14 25 -20 19 -9 25 -9 25 1 0 6 16 -4 34 -24
18 -20 41 -39 50 -42 9 -4 0 10 -19 30 -20 21 -32 39 -26 41 17 6 13 32 -4 32
-8 0 -15 -5 -15 -11z"/>
<path d="M4845 1510 c-3 -5 -1 -10 4 -10 6 0 11 5 11 10 0 6 -2 10 -4 10 -3 0
-8 -4 -11 -10z"/>
<path d="M3505 1500 c-3 -5 -1 -10 4 -10 6 0 11 5 11 10 0 6 -2 10 -4 10 -3 0
-8 -4 -11 -10z"/>
<path d="M2590 1470 c0 -17 -1 -33 -2 -37 -2 -5 12 -9 29 -10 29 -1 31 0 18
14 -12 12 -19 12 -29 3 -12 -9 -13 -7 -9 9 3 12 9 18 14 15 5 -3 9 1 9 9 0 8
-7 17 -15 21 -11 4 -15 -2 -15 -24z"/>
<path d="M3295 1490 c-3 -5 -1 -10 4 -10 6 0 11 5 11 10 0 6 -2 10 -4 10 -3 0
-8 -4 -11 -10z"/>
<path d="M3321 1490 c1 -24 15 -54 21 -44 4 5 0 20 -8 34 -7 14 -13 18 -13 10z"/>
<path d="M3548 1493 c6 -2 18 -2 25 0 6 3 1 5 -13 5 -14 0 -19 -2 -12 -5z"/>
<path d="M3590 1486 c0 -2 7 -6 15 -10 8 -3 15 -1 15 4 0 6 -7 10 -15 10 -8 0
-15 -2 -15 -4z"/>
<path d="M3640 1486 c0 -2 7 -7 16 -10 8 -3 12 -2 9 4 -6 10 -25 14 -25 6z"/>
<path d="M4288 1483 c7 -3 16 -2 19 1 4 3 -2 6 -13 5 -11 0 -14 -3 -6 -6z"/>
<path d="M4960 1480 c0 -5 5 -10 11 -10 5 0 7 5 4 10 -3 6 -8 10 -11 10 -2 0
-4 -4 -4 -10z"/>
<path d="M2723 1457 c-5 -12 -9 -40 -7 -62 l3 -40 -8 38 c-10 48 -21 59 -21
21 -1 -16 -7 -45 -13 -64 -8 -20 -10 -49 -6 -68 5 -27 4 -30 -7 -21 -8 6 -12
15 -9 19 3 5 -1 15 -9 23 -8 8 -13 17 -10 20 3 3 -2 17 -12 31 -19 29 -31 29
-16 -1 5 -10 19 -38 31 -63 12 -25 31 -61 42 -80 10 -19 19 -50 19 -67 0 -21
5 -32 13 -30 6 1 10 -5 8 -13 -2 -8 -3 -24 -3 -34 1 -11 -4 -29 -10 -40 -7
-12 -12 -29 -13 -38 -1 -10 -9 -26 -18 -36 -9 -10 -17 -25 -17 -32 0 -7 -6
-21 -13 -29 -8 -9 -20 -38 -27 -66 -7 -27 -31 -97 -52 -153 -22 -57 -41 -115
-42 -128 0 -13 -5 -24 -10 -24 -6 0 -5 -5 1 -11 6 -6 9 -19 5 -28 -5 -14 -4
-14 12 -1 16 13 18 12 15 -10 -2 -26 5 -50 23 -84 24 -44 10 -132 -17 -108 -5
4 -5 2 -1 -5 7 -12 -20 -90 -29 -81 -3 2 -7 20 -9 39 -3 19 -9 47 -15 62 -6
16 -11 58 -11 94 0 68 -6 78 -17 27 -8 -40 -7 -41 12 -109 9 -33 16 -84 15
-113 0 -30 3 -52 9 -52 6 0 11 -16 11 -35 0 -29 -4 -35 -22 -36 -13 0 -17 -3
-10 -6 6 -2 12 -19 13 -36 l1 -32 13 35 c10 26 14 30 15 15 1 -11 2 -26 1 -32
-1 -7 2 -13 7 -13 5 0 8 46 8 103 -1 83 3 109 19 141 21 42 45 59 45 31 0 -16
68 -253 76 -267 3 -4 9 -8 14 -8 6 0 1 24 -9 53 -45 129 -91 288 -102 350 -13
77 -7 130 20 191 28 62 33 83 31 134 0 26 -1 55 -1 65 0 31 34 109 41 96 5 -8
10 -4 15 10 4 13 4 25 1 28 -3 4 -2 11 3 17 4 6 16 35 26 64 14 43 16 76 11
180 -3 70 -6 129 -7 132 -4 17 4 107 11 126 12 30 -4 40 -17 11z m-9 -234 c4
-70 3 -83 -3 -47 -5 28 -13 60 -20 72 -12 23 -15 71 -4 98 11 30 21 -14 27
-123z m-90 -521 c-5 -31 -12 -61 -38 -149 -14 -44 -23 -60 -33 -56 -8 3 -11
13 -8 24 4 11 2 19 -4 19 -10 0 20 90 55 162 19 42 35 42 28 0z"/>
<path d="M4000 1476 c0 -2 7 -7 16 -10 8 -3 12 -2 9 4 -6 10 -25 14 -25 6z"/>
<path d="M2635 1460 c3 -5 8 -10 11 -10 2 0 4 5 4 10 0 6 -5 10 -11 10 -5 0
-7 -4 -4 -10z"/>
<path d="M3700 1466 c0 -7 60 -12 70 -6 6 4 -7 7 -30 8 -22 1 -40 0 -40 -2z"/>
<path d="M4278 1463 c7 -3 16 -2 19 1 4 3 -2 6 -13 5 -11 0 -14 -3 -6 -6z"/>
<path d="M2495 1450 c-3 -5 -1 -10 4 -10 6 0 11 5 11 10 0 6 -2 10 -4 10 -3 0
-8 -4 -11 -10z"/>
<path d="M3266 1452 c-3 -5 -2 -22 3 -38 l8 -29 5 33 c4 31 -5 52 -16 34z"/>
<path d="M4153 1453 c15 -2 37 -2 50 0 12 2 0 4 -28 4 -27 0 -38 -2 -22 -4z"/>
<path d="M3581 1434 c0 -11 3 -14 6 -6 3 7 2 16 -1 19 -3 4 -6 -2 -5 -13z"/>
<path d="M4090 1440 c0 -5 5 -10 11 -10 5 0 7 5 4 10 -3 6 -8 10 -11 10 -2 0
-4 -4 -4 -10z"/>
<path d="M4710 1430 c0 -5 5 -10 11 -10 5 0 7 5 4 10 -3 6 -8 10 -11 10 -2 0
-4 -4 -4 -10z"/>
<path d="M2552 1406 c-13 -29 -5 -41 15 -21 9 10 11 20 5 30 -7 13 -10 12 -20
-9z"/>
<path d="M3500 1420 c0 -5 5 -10 10 -10 6 0 10 5 10 10 0 6 -4 10 -10 10 -5 0
-10 -4 -10 -10z"/>
<path d="M3545 1420 c-3 -5 1 -10 10 -10 9 0 13 5 10 10 -3 6 -8 10 -10 10 -2
0 -7 -4 -10 -10z"/>
<path d="M2820 1380 c6 -11 15 -20 20 -20 14 0 1 28 -16 34 -12 4 -12 2 -4
-14z"/>
<path d="M2890 1391 c0 -6 4 -13 10 -16 6 -3 7 1 4 9 -7 18 -14 21 -14 7z"/>
<path d="M3130 1378 c0 -4 4 -8 9 -8 6 0 12 4 15 8 3 5 -1 9 -9 9 -8 0 -15 -4
-15 -9z"/>
<path d="M3488 1383 c-8 -15 -3 -36 8 -40 17 -6 25 24 9 37 -7 6 -15 7 -17 3z"/>
<path d="M5168 1373 c7 -3 16 -2 19 1 4 3 -2 6 -13 5 -11 0 -14 -3 -6 -6z"/>
<path d="M2512 1349 c-14 -22 -4 -25 22 -6 16 11 16 15 4 19 -8 4 -20 -2 -26
-13z"/>
<path d="M2571 1344 c-7 -16 -15 -42 -18 -59 -3 -16 -10 -33 -16 -37 -9 -6 -8
-11 3 -18 13 -8 12 -10 -3 -10 -14 0 -17 -5 -12 -21 5 -16 4 -19 -5 -14 -9 6
-11 4 -5 -5 4 -7 3 -15 -3 -19 -7 -4 -4 -11 9 -19 19 -12 20 -11 14 9 -4 13
-3 19 3 15 5 -3 12 16 16 45 4 28 14 68 22 89 20 49 15 88 -5 44z"/>
<path d="M3556 1357 c3 -10 9 -15 12 -12 3 3 0 11 -7 18 -10 9 -11 8 -5 -6z"/>
<path d="M4700 1355 c-11 -13 -10 -14 4 -9 9 3 16 10 16 15 0 13 -6 11 -20 -6z"/>
<path d="M872 1340 c0 -14 2 -19 5 -12 2 6 2 18 0 25 -3 6 -5 1 -5 -13z"/>
<path d="M2145 1352 c-6 -5 -30 -15 -55 -23 -78 -24 -171 -137 -194 -234 -4
-16 -18 -52 -31 -80 -13 -27 -25 -59 -27 -70 -1 -11 -6 -22 -10 -25 -12 -9
-58 -142 -58 -167 0 -20 2 -22 14 -11 8 7 10 14 5 16 -13 5 -11 22 11 67 11
22 19 48 20 57 0 22 20 34 20 13 0 -9 -5 -26 -11 -37 -9 -17 -8 -23 5 -30 9
-5 16 -19 15 -31 l0 -22 -9 23 c-5 12 -14 22 -19 22 -10 0 -8 -34 4 -62 4 -10
11 -18 16 -18 9 0 12 19 29 175 7 61 19 119 26 130 8 11 14 31 14 45 0 14 9
36 20 50 11 14 20 30 20 36 0 16 71 107 77 100 3 -3 19 6 35 19 16 14 34 23
39 20 5 -4 14 -1 21 5 7 6 22 17 33 25 11 8 15 15 10 15 -6 0 -15 -4 -20 -8z"/>
<path d="M2922 1349 c3 -16 57 -42 72 -35 6 2 4 5 -5 5 -9 1 -28 10 -43 22
-17 13 -26 16 -24 8z"/>
<path d="M3112 1348 c-6 -6 -12 -21 -12 -32 0 -20 1 -19 16 2 18 26 15 49 -4
30z"/>
<path d="M4779 1350 c-20 -13 -5 -22 21 -12 18 7 20 10 8 14 -8 4 -21 2 -29
-2z"/>
<path d="M2395 1340 c-3 -5 -1 -10 4 -10 6 0 11 5 11 10 0 6 -2 10 -4 10 -3 0
-8 -4 -11 -10z"/>
<path d="M2436 1335 c-9 -26 -7 -32 5 -12 6 10 9 21 6 23 -2 3 -7 -2 -11 -11z"/>
<path d="M2747 1338 c6 -7 14 -30 17 -52 5 -25 11 -35 17 -29 14 14 -12 93
-30 93 -9 0 -10 -4 -4 -12z"/>
<path d="M2820 1340 c0 -5 5 -10 10 -10 6 0 10 5 10 10 0 6 -4 10 -10 10 -5 0
-10 -4 -10 -10z"/>
<path d="M3635 1340 c-3 -5 -1 -10 4 -10 6 0 11 5 11 10 0 6 -2 10 -4 10 -3 0
-8 -4 -11 -10z"/>
<path d="M3961 1324 c0 -11 3 -14 6 -6 3 7 2 16 -1 19 -3 4 -6 -2 -5 -13z"/>
<path d="M3483 1310 c-3 -11 -9 -20 -14 -20 -5 0 -9 -7 -9 -17 0 -12 7 -8 25
13 27 31 31 44 14 44 -6 0 -13 -9 -16 -20z"/>
<path d="M455 1310 c-3 -5 -1 -10 4 -10 6 0 11 5 11 10 0 6 -2 10 -4 10 -3 0
-8 -4 -11 -10z"/>
<path d="M2135 1310 c-3 -6 1 -7 9 -4 18 7 21 14 7 14 -6 0 -13 -4 -16 -10z"/>
<path d="M2490 1310 c0 -5 4 -10 9 -10 6 0 13 5 16 10 3 6 -1 10 -9 10 -9 0
-16 -4 -16 -10z"/>
<path d="M2848 1313 c7 -3 16 -2 19 1 4 3 -2 6 -13 5 -11 0 -14 -3 -6 -6z"/>
<path d="M3080 1311 c0 -8 -7 -11 -15 -7 -8 3 -15 1 -15 -4 0 -6 6 -10 14 -10
17 0 31 18 22 27 -3 4 -6 1 -6 -6z"/>
<path d="M3930 1310 c0 -5 5 -10 11 -10 5 0 7 5 4 10 -3 6 -8 10 -11 10 -2 0
-4 -4 -4 -10z"/>
<path d="M4676 1307 c3 -10 9 -15 12 -12 3 3 0 11 -7 18 -10 9 -11 8 -5 -6z"/>
<path d="M4750 1305 c0 -8 -4 -15 -10 -15 -5 0 -10 -5 -10 -11 0 -5 5 -7 10
-4 6 3 10 1 10 -5 0 -6 5 -8 11 -4 8 5 8 9 -1 14 -9 5 -9 9 -1 14 14 9 14 26
1 26 -5 0 -10 -7 -10 -15z"/>
<path d="M5170 1301 c5 -11 16 -25 22 -33 7 -7 26 -30 42 -51 15 -21 31 -36
34 -32 4 3 0 10 -8 15 -11 7 -12 10 -2 10 7 0 10 5 7 10 -4 6 -10 8 -15 5 -5
-3 -13 2 -18 11 -10 19 -4 54 9 54 5 0 9 7 9 15 0 18 -46 21 -54 3 -5 -10 -7
-10 -12 0 -3 6 -10 12 -15 12 -6 0 -6 -8 1 -19z m52 -16 c-3 -20 -7 -23 -18
-14 -12 10 -11 14 3 25 10 7 19 14 19 14 1 0 -1 -11 -4 -25z"/>
<path d="M2200 1304 c0 -7 7 -25 15 -40 8 -16 15 -22 15 -14 -1 18 -29 70 -30
54z"/>
<path d="M3336 1297 c3 -10 9 -15 12 -12 3 3 0 11 -7 18 -10 9 -11 8 -5 -6z"/>
<path d="M5260 1299 c0 -5 5 -7 10 -4 6 3 10 8 10 11 0 2 -4 4 -10 4 -5 0 -10
-5 -10 -11z"/>
<path d="M5315 1300 c4 -6 11 -8 16 -5 14 9 11 15 -7 15 -8 0 -12 -5 -9 -10z"/>
<path d="M5364 1296 c-27 -20 -14 -28 34 -20 29 4 39 10 35 20 -7 18 -44 18
-69 0z m31 -6 c-3 -5 -14 -10 -23 -9 -14 0 -13 2 3 9 27 11 27 11 20 0z"/>
<path d="M2860 1293 c0 -5 14 -22 30 -38 17 -16 30 -25 30 -21 0 4 -13 21 -30
38 -16 16 -30 26 -30 21z"/>
<path d="M2980 1291 c0 -12 28 -22 35 -12 3 5 -2 12 -11 15 -21 8 -24 8 -24
-3z"/>
<path d="M5443 1280 c-2 -18 4 -20 45 -19 l47 1 -32 10 c-18 6 -33 15 -33 19
0 19 -26 8 -27 -11z"/>
<path d="M5628 1283 c7 -3 16 -2 19 1 4 3 -2 6 -13 5 -11 0 -14 -3 -6 -6z"/>
<path d="M5704 1278 c-7 -10 15 -9 41 2 17 7 16 8 -8 7 -16 -1 -31 -5 -33 -9z"/>
<path d="M2270 1260 c0 -11 2 -20 4 -20 2 0 6 9 9 20 3 11 1 20 -4 20 -5 0 -9
-9 -9 -20z"/>
<path d="M2601 1264 c0 -11 3 -14 6 -6 3 7 2 16 -1 19 -3 4 -6 -2 -5 -13z"/>
<path d="M5828 1273 c17 -2 47 -2 65 0 17 2 3 4 -33 4 -36 0 -50 -2 -32 -4z"/>
<path d="M5947 1269 c7 -7 15 -10 18 -7 3 3 -2 9 -12 12 -14 6 -15 5 -6 -5z"/>
<path d="M3361 1254 c0 -11 3 -14 6 -6 3 7 2 16 -1 19 -3 4 -6 -2 -5 -13z"/>
<path d="M4448 1242 c-3 -10 1 -32 8 -48 12 -28 13 -27 7 16 -7 53 -9 57 -15
32z"/>
<path d="M5240 1250 c0 -5 5 -10 11 -10 5 0 7 5 4 10 -3 6 -8 10 -11 10 -2 0
-4 -4 -4 -10z"/>
<path d="M3150 1246 c0 -10 28 -13 41 -5 10 6 7 9 -13 9 -16 0 -28 -2 -28 -4z"/>
<path d="M4491 1234 c0 -11 3 -14 6 -6 3 7 2 16 -1 19 -3 4 -6 -2 -5 -13z"/>
<path d="M4721 1229 c-10 -11 -21 -33 -24 -47 -5 -25 -4 -25 9 -7 8 10 14 24
14 31 0 7 9 16 20 19 11 3 20 11 20 16 0 15 -18 10 -39 -12z"/>
<path d="M5628 1243 c7 -3 16 -2 19 1 4 3 -2 6 -13 5 -11 0 -14 -3 -6 -6z"/>
<path d="M5678 1243 c6 -2 18 -2 25 0 6 3 1 5 -13 5 -14 0 -19 -2 -12 -5z"/>
<path d="M5733 1243 c9 -2 23 -2 30 0 6 3 -1 5 -18 5 -16 0 -22 -2 -12 -5z"/>
<path d="M5785 1237 c-14 -8 -15 -11 -4 -18 9 -6 5 -7 -13 -3 -18 4 -28 2 -28
-5 0 -7 24 -11 63 -12 34 0 72 -2 85 -3 13 -2 25 0 27 4 3 4 23 6 45 5 33 -2
40 1 40 16 0 11 -5 19 -11 19 -5 0 -7 -5 -4 -10 4 -7 -6 -9 -29 -7 -20 3 -39
0 -42 -5 -3 -4 -10 -5 -16 -2 -6 4 -5 10 3 16 10 7 8 8 -8 5 -13 -3 -38 -2
-56 3 -20 4 -42 3 -52 -3z"/>
<path d="M2250 1224 c0 -9 -5 -12 -11 -8 -16 10 -3 -43 18 -70 15 -21 15 -21
8 4 -4 14 -7 40 -7 58 0 17 -1 32 -4 32 -2 0 -4 -7 -4 -16z"/>
<path d="M5303 1222 c0 -10 7 -19 14 -19 17 0 16 5 -1 23 -13 12 -15 12 -13
-4z"/>
<path d="M5357 1233 c-4 -3 2 -12 13 -20 24 -17 25 -36 4 -68 -15 -22 -14 -23
5 -18 20 5 23 12 24 61 1 17 7 22 26 22 23 1 24 2 8 11 -10 6 -25 8 -34 5 -8
-4 -21 -2 -28 4 -6 5 -15 7 -18 3z"/>
<path d="M5580 1229 c0 -5 9 -9 20 -9 11 0 20 2 20 4 0 2 -9 6 -20 9 -11 3
-20 1 -20 -4z"/>
<path d="M2373 1223 c-15 -5 -18 -33 -4 -33 5 0 11 9 14 20 3 11 4 20 4 19 -1
0 -8 -3 -14 -6z"/>
<path d="M2651 1214 c0 -11 3 -14 6 -6 3 7 2 16 -1 19 -3 4 -6 -2 -5 -13z"/>
<path d="M4027 1219 c7 -7 15 -10 18 -7 3 3 -2 9 -12 12 -14 6 -15 5 -6 -5z"/>
<path d="M5488 1223 c7 -3 16 -2 19 1 4 3 -2 6 -13 5 -11 0 -14 -3 -6 -6z"/>
<path d="M5645 1220 c-3 -5 1 -10 9 -10 9 0 16 5 16 10 0 6 -4 10 -9 10 -6 0
-13 -4 -16 -10z"/>
<path d="M5688 1218 c9 -9 15 -9 24 0 9 9 7 12 -12 12 -19 0 -21 -3 -12 -12z"/>
<path d="M1981 1193 c-10 -21 -9 -28 1 -34 10 -7 10 -9 -1 -9 -8 0 -12 -2 -9
-5 3 -3 13 -3 22 1 12 5 14 10 6 20 -8 9 -8 18 0 33 6 12 7 21 2 21 -5 0 -14
-12 -21 -27z"/>
<path d="M2055 1209 c-4 -6 -5 -12 -2 -15 2 -3 7 2 10 11 7 17 1 20 -8 4z"/>
<path d="M2615 1205 c4 -11 7 -28 7 -38 0 -9 3 -15 8 -12 4 3 7 -3 5 -12 -2
-10 -4 -20 -4 -23 -1 -3 -6 2 -11 10 -5 8 -10 11 -10 5 1 -10 29 -52 31 -44
10 58 7 86 -12 109 -17 20 -19 21 -14 5z"/>
<path d="M4830 1200 c0 -5 5 -10 10 -10 6 0 10 5 10 10 0 6 -4 10 -10 10 -5 0
-10 -4 -10 -10z"/>
<path d="M5361 1184 c0 -11 3 -14 6 -6 3 7 2 16 -1 19 -3 4 -6 -2 -5 -13z"/>
<path d="M5135 1180 c-3 -5 -1 -10 4 -10 6 0 11 5 11 10 0 6 -2 10 -4 10 -3 0
-8 -4 -11 -10z"/>
<path d="M5287 1171 c-6 -24 33 -73 61 -78 31 -4 28 13 -3 21 -18 5 -27 15
-32 36 -7 37 -19 46 -26 21z"/>
<path d="M5437 1183 c-3 -5 11 -9 31 -9 21 0 49 -3 63 -7 15 -4 33 -2 42 6 14
10 4 13 -57 15 -41 2 -76 -1 -79 -5z"/>
<path d="M5631 1171 c-10 -18 -9 -21 9 -21 12 0 18 5 15 10 -10 16 24 24 51
11 15 -6 32 -8 40 -3 9 5 36 2 67 -9 33 -11 56 -14 63 -8 19 16 74 18 74 3 0
-8 6 -11 15 -8 9 4 15 1 15 -7 0 -10 3 -10 11 -2 15 15 3 34 -16 26 -8 -3 -15
-1 -15 5 0 5 -21 10 -47 10 -27 0 -98 3 -159 7 -108 8 -112 7 -123 -14z"/>
<path d="M3030 1176 c0 -2 7 -6 15 -10 8 -3 15 -1 15 4 0 6 -7 10 -15 10 -8 0
-15 -2 -15 -4z"/>
<path d="M3422 1150 c0 -14 2 -19 5 -12 2 6 2 18 0 25 -3 6 -5 1 -5 -13z"/>
<path d="M2365 1148 c-11 -7 -29 -14 -39 -15 -11 -2 -22 -6 -25 -10 -3 -3 3
-4 15 -1 12 3 28 2 36 -3 11 -6 18 -1 26 16 7 14 11 25 9 25 -1 0 -11 -6 -22
-12z"/>
<path d="M3285 1150 c3 -5 8 -10 11 -10 2 0 4 5 4 10 0 6 -5 10 -11 10 -5 0
-7 -4 -4 -10z"/>
<path d="M4666 1115 c-4 -19 -11 -35 -16 -35 -6 0 -10 -7 -10 -16 0 -9 -8 -29
-17 -45 -14 -24 -15 -31 -4 -41 9 -9 12 -9 7 -1 -3 6 2 29 13 50 38 74 55 123
41 123 -4 0 -11 -16 -14 -35z"/>
<path d="M2503 1123 c-3 -10 -8 -22 -10 -28 -3 -5 3 -1 11 9 16 20 21 36 11
36 -3 0 -8 -8 -12 -17z"/>
<path d="M4711 1124 c0 -11 3 -14 6 -6 3 7 2 16 -1 19 -3 4 -6 -2 -5 -13z"/>
<path d="M5770 1129 c0 -5 5 -7 10 -4 6 3 10 8 10 11 0 2 -4 4 -10 4 -5 0 -10
-5 -10 -11z"/>
<path d="M5890 1129 c0 -5 5 -7 10 -4 6 3 10 8 10 11 0 2 -4 4 -10 4 -5 0 -10
-5 -10 -11z"/>
<path d="M5450 1120 c20 -13 33 -13 25 0 -3 6 -14 10 -23 10 -15 0 -15 -2 -2
-10z"/>
<path d="M2278 1085 c9 -19 20 -35 24 -35 4 0 0 16 -9 35 -9 19 -20 35 -24 35
-3 0 1 -16 9 -35z"/>
<path d="M5379 1105 c-1 -11 -1 -24 0 -28 1 -5 -8 -5 -20 -2 l-22 7 22 -28
c14 -18 34 -30 54 -32 27 -3 33 11 6 14 -5 1 -13 2 -18 3 -5 0 -11 12 -14 26
-3 17 0 24 7 22 6 -2 10 -12 10 -21 -1 -9 2 -16 7 -16 5 0 9 4 9 9 0 6 112 8
290 5 199 -3 290 -2 290 6 0 6 -35 10 -92 11 -173 2 -473 8 -478 9 -3 1 -11 3
-18 4 -7 0 -17 8 -22 16 -8 12 -10 12 -11 -5z"/>
<path d="M2070 1095 c-11 -13 -10 -14 4 -9 9 3 16 10 16 15 0 13 -6 11 -20 -6z"/>
<path d="M2517 1088 c-3 -12 -2 -29 3 -37 7 -12 9 -6 10 22 0 42 -5 48 -13 15z"/>
<path d="M1986 1085 c-3 -9 -6 -26 -5 -38 1 -14 4 -9 9 13 9 37 7 52 -4 25z"/>
<path d="M2691 1082 c0 -7 -5 -11 -10 -8 -5 4 -7 -3 -4 -13 3 -11 -3 -41 -13
-67 -14 -38 -19 -43 -25 -28 -6 15 -8 15 -8 3 -1 -9 2 -18 5 -22 11 -11 34 5
34 23 0 10 7 34 16 55 8 20 13 44 11 53 -3 10 -5 11 -6 4z"/>
<path d="M3377 1079 c7 -7 15 -10 18 -7 3 3 -2 9 -12 12 -14 6 -15 5 -6 -5z"/>
<path d="M2040 1070 c0 -5 5 -10 11 -10 5 0 7 5 4 10 -3 6 -8 10 -11 10 -2 0
-4 -4 -4 -10z"/>
<path d="M2195 1070 c-3 -5 -3 -10 1 -10 4 0 -1 -6 -12 -14 -10 -8 -16 -18
-11 -22 4 -4 7 -2 7 4 0 7 7 12 15 12 8 0 15 9 15 20 0 22 -5 26 -15 10z"/>
<path d="M4030 1070 c0 -5 5 -10 11 -10 5 0 7 5 4 10 -3 6 -8 10 -11 10 -2 0
-4 -4 -4 -10z"/>
<path d="M2320 1043 c-7 -16 -14 -74 -15 -133 l-3 -105 9 75 c9 75 22 140 34
173 11 28 -11 19 -25 -10z"/>
<path d="M2089 1023 c-13 -16 -12 -17 4 -4 16 13 21 21 13 21 -2 0 -10 -8 -17
-17z"/>
<path d="M4765 1030 c-3 -5 -1 -10 4 -10 6 0 11 5 11 10 0 6 -2 10 -4 10 -3 0
-8 -4 -11 -10z"/>
<path d="M5537 1025 c3 -8 9 -12 14 -9 12 7 11 11 -5 17 -10 4 -13 1 -9 -8z"/>
<path d="M5575 1029 c-4 -6 -5 -12 -2 -15 2 -3 7 2 10 11 7 17 1 20 -8 4z"/>
<path d="M5602 1028 c-7 -7 -12 -17 -12 -22 0 -6 5 -3 11 7 12 21 31 23 23 2
-4 -11 -2 -13 9 -9 9 3 26 0 39 -6 22 -11 22 -10 4 4 -11 9 -25 16 -30 17 -6
0 -2 4 9 9 17 7 16 9 -10 9 -17 1 -36 -4 -43 -11z"/>
<path d="M5720 1018 c12 -10 30 -18 39 -18 14 0 14 2 1 10 -12 8 -10 10 8 10
13 0 20 4 17 10 -4 6 -25 10 -47 8 l-40 -2 22 -18z"/>
<path d="M5914 1029 c-3 -6 -1 -16 5 -22 9 -9 11 -8 5 6 -6 16 -3 17 22 12 16
-4 35 -8 42 -11 6 -2 12 0 12 5 0 19 -75 28 -86 10z"/>
<path d="M2505 1013 c-4 -13 -11 -23 -17 -23 -5 0 -4 -8 1 -19 6 -10 7 -22 3
-26 -4 -5 -1 -5 6 -1 7 5 11 15 7 24 -3 8 -1 19 6 22 6 4 9 16 6 26 -4 17 -6
17 -12 -3z"/>
<path d="M5825 1020 c3 -5 12 -10 20 -10 8 0 17 5 20 10 4 6 -5 10 -20 10 -15
0 -24 -4 -20 -10z"/>
<path d="M1945 1009 c-11 -17 1 -21 15 -4 8 9 8 15 2 15 -6 0 -14 -5 -17 -11z"/>
<path d="M2282 957 c-2 -42 -27 -141 -42 -169 -12 -22 -12 -28 -2 -28 15 0 53
148 49 192 l-4 43 -1 -38z"/>
<path d="M4063 962 c0 -12 5 -22 9 -22 11 0 10 12 -2 30 -7 12 -9 10 -7 -8z"/>
<path d="M4591 952 c-17 -31 -13 -40 5 -14 9 13 14 26 11 29 -3 2 -10 -4 -16
-15z"/>
<path d="M5643 963 c9 -2 23 -2 30 0 6 3 -1 5 -18 5 -16 0 -22 -2 -12 -5z"/>
<path d="M4978 948 c5 -5 16 -8 23 -6 8 3 3 7 -10 11 -17 4 -21 3 -13 -5z"/>
<path d="M5440 950 c-8 -5 -10 -10 -5 -10 6 0 17 5 25 10 8 5 11 10 5 10 -5 0
-17 -5 -25 -10z"/>
<path d="M5782 944 c-7 -8 -8 -14 -3 -14 10 0 25 19 20 25 -2 1 -10 -3 -17
-11z"/>
<path d="M2125 940 c-4 -6 -11 -7 -17 -4 -7 4 -8 2 -4 -4 5 -9 13 -9 27 -2 10
6 19 13 19 15 0 9 -19 5 -25 -5z"/>
<path d="M2482 910 c0 -14 2 -19 5 -12 2 6 2 18 0 25 -3 6 -5 1 -5 -13z"/>
<path d="M5200 920 c0 -5 5 -10 11 -10 5 0 7 5 4 10 -3 6 -8 10 -11 10 -2 0
-4 -4 -4 -10z"/>
<path d="M5455 920 c-3 -5 1 -10 10 -10 9 0 13 5 10 10 -3 6 -8 10 -10 10 -2
0 -7 -4 -10 -10z"/>
<path d="M5497 916 c-4 -10 1 -12 14 -9 23 6 24 9 5 16 -8 3 -17 0 -19 -7z"/>
<path d="M2620 910 c0 -5 5 -10 11 -10 5 0 7 5 4 10 -3 6 -8 10 -11 10 -2 0
-4 -4 -4 -10z"/>
<path d="M4067 905 c-4 -8 -2 -17 3 -20 6 -4 10 0 10 9 0 8 6 17 13 19 7 4 6
6 -4 6 -9 1 -19 -6 -22 -14z"/>
<path d="M4975 910 c-3 -5 -1 -10 4 -10 6 0 11 5 11 10 0 6 -2 10 -4 10 -3 0
-8 -4 -11 -10z"/>
<path d="M2115 899 c-11 -16 -1 -19 13 -3 7 8 8 14 3 14 -5 0 -13 -5 -16 -11z"/>
<path d="M4566 895 c-3 -8 0 -17 6 -21 6 -4 8 -3 4 4 -3 5 -1 12 6 14 8 3 9 6
1 11 -6 4 -13 0 -17 -8z"/>
<path d="M5130 899 c0 -5 5 -7 10 -4 6 3 10 8 10 11 0 2 -4 4 -10 4 -5 0 -10
-5 -10 -11z"/>
<path d="M5165 900 c-3 -5 -1 -10 4 -10 6 0 11 5 11 10 0 6 -2 10 -4 10 -3 0
-8 -4 -11 -10z"/>
<path d="M2211 884 c0 -11 3 -14 6 -6 3 7 2 16 -1 19 -3 4 -6 -2 -5 -13z"/>
<path d="M5889 896 c-2 -3 -87 -6 -189 -7 -102 -2 -196 -6 -210 -10 -14 -4 95
-6 242 -6 148 1 268 5 268 9 0 3 -15 6 -34 6 -19 0 -43 3 -53 6 -11 3 -21 4
-24 2z"/>
<path d="M2122 860 c-15 -25 -16 -50 -1 -50 6 0 8 7 5 16 -4 9 -1 23 5 31 7 7
10 15 8 18 -3 2 -10 -5 -17 -15z"/>
<path d="M5107 865 c-4 -8 -2 -17 3 -20 6 -4 10 3 10 14 0 25 -6 27 -13 6z"/>
<path d="M2481 854 c0 -11 3 -14 6 -6 3 7 2 16 -1 19 -3 4 -6 -2 -5 -13z"/>
<path d="M4840 859 c0 -5 5 -7 10 -4 6 3 10 8 10 11 0 2 -4 4 -10 4 -5 0 -10
-5 -10 -11z"/>
<path d="M1967 848 c-2 -8 -2 -32 0 -53 3 -22 6 -63 6 -92 1 -28 4 -50 9 -47
6 4 0 194 -7 202 -1 2 -5 -3 -8 -10z"/>
<path d="M2545 849 c-4 -6 -5 -12 -2 -15 2 -3 7 2 10 11 7 17 1 20 -8 4z"/>
<path d="M2585 808 c-9 -29 -19 -60 -22 -68 -4 -10 -2 -12 5 -5 13 13 46 115
39 121 -3 3 -13 -18 -22 -48z"/>
<path d="M4985 830 c4 -6 11 -8 16 -5 14 9 11 15 -7 15 -8 0 -12 -5 -9 -10z"/>
<path d="M5676 832 c-6 -10 40 -10 50 1 4 4 -4 7 -19 7 -14 0 -28 -4 -31 -8z"/>
<path d="M5741 836 c12 -10 79 -16 79 -6 0 5 -19 10 -42 10 -23 0 -39 -2 -37
-4z"/>
<path d="M5985 830 c3 -5 8 -10 11 -10 2 0 4 5 4 10 0 6 -5 10 -11 10 -5 0 -7
-4 -4 -10z"/>
<path d="M5491 814 c0 -11 3 -14 6 -6 3 7 2 16 -1 19 -3 4 -6 -2 -5 -13z"/>
<path d="M2465 800 c-3 -6 1 -7 9 -4 18 7 21 14 7 14 -6 0 -13 -4 -16 -10z"/>
<path d="M4860 799 c0 -5 5 -7 10 -4 6 3 10 8 10 11 0 2 -4 4 -10 4 -5 0 -10
-5 -10 -11z"/>
<path d="M5955 801 c-3 -5 0 -13 6 -17 7 -4 9 -3 5 4 -3 5 0 13 6 15 9 4 10 6
1 6 -6 1 -14 -3 -18 -8z"/>
<path d="M2295 775 c2 -37 15 -43 15 -7 0 18 -4 32 -8 32 -4 0 -7 -11 -7 -25z"/>
<path d="M5800 779 c0 -5 4 -9 9 -9 5 0 16 -3 25 -6 9 -3 16 -2 16 4 0 5 -11
12 -25 14 -14 3 -25 1 -25 -3z"/>
<path d="M5695 770 c-27 -7 -28 -8 -5 -8 14 0 34 3 45 8 25 11 2 11 -40 0z"/>
<path d="M2371 729 c1 -24 5 -55 9 -69 5 -15 6 1 3 40 -7 76 -13 93 -12 29z"/>
<path d="M3335 760 c-3 -5 -1 -10 4 -10 6 0 11 5 11 10 0 6 -2 10 -4 10 -3 0
-8 -4 -11 -10z"/>
<path d="M4170 763 c-8 -2 -22 -7 -30 -9 -8 -3 -17 -6 -20 -6 -3 -1 -11 -8
-18 -17 -12 -14 -13 -14 -8 4 5 17 4 18 -6 4 -13 -16 -47 -33 -60 -31 -5 1 -8
-2 -8 -8 0 -5 -6 -7 -14 -4 -8 3 -17 0 -22 -7 -5 -8 -3 -10 5 -4 7 4 5 -4 -4
-19 -9 -14 -22 -23 -28 -19 -6 3 -7 1 -3 -5 4 -6 14 -8 23 -5 13 5 15 2 10
-11 -4 -10 -7 -20 -7 -22 0 -3 -5 -2 -12 2 -7 5 -8 3 -3 -6 4 -7 2 -16 -6 -21
-8 -5 -17 -3 -21 4 -5 8 -8 4 -8 -10 0 -14 6 -23 16 -23 8 0 12 -5 9 -10 -4
-6 -11 -8 -16 -5 -9 6 -2 -22 11 -40 11 -15 20 -45 14 -45 -2 0 -8 10 -13 22
l-8 22 -5 -22 c-4 -12 -2 -20 3 -16 5 3 9 0 9 -5 0 -6 12 -11 26 -11 17 0 23
-4 18 -12 -4 -6 9 -2 29 11 20 12 37 18 37 11 0 -6 14 4 32 22 19 20 33 28 36
20 7 -23 21 -12 19 16 -1 15 2 28 6 29 4 1 28 23 52 48 27 29 49 44 56 39 7
-4 9 -3 6 3 -4 6 3 19 14 29 17 16 22 16 29 4 6 -10 8 -3 6 22 -6 56 -11 59
-61 33 -25 -14 -44 -21 -44 -17 6 35 -18 72 -41 65z m4 -48 c-18 -13 -18 -14
-1 -15 18 0 25 -20 7 -20 -5 0 -10 -6 -10 -14 0 -21 30 -13 79 20 53 35 64 25
14 -13 -21 -15 -80 -70 -130 -121 -77 -78 -97 -93 -119 -90 -38 4 -48 26 -40
83 7 46 20 51 28 10 6 -32 30 -28 91 17 39 29 53 44 44 50 -18 11 -27 10 -22
-4 6 -18 -61 -48 -75 -34 -8 8 -11 7 -8 -3 2 -7 -3 -16 -9 -18 -10 -3 -13 12
-13 56 0 46 3 61 14 61 8 0 17 -6 19 -12 4 -9 6 -8 6 3 1 9 28 27 69 45 64 29
94 28 56 -1z"/>
<path d="M4136 697 c-5 -9 -5 -29 0 -45 7 -25 8 -26 11 -4 3 12 3 32 0 45 -3
19 -4 20 -11 4z"/>
<path d="M4091 654 c0 -11 3 -14 6 -6 3 7 2 16 -1 19 -3 4 -6 -2 -5 -13z"/>
<path d="M5620 760 c-13 -8 -12 -10 3 -10 9 0 17 5 17 10 0 12 -1 12 -20 0z"/>
<path d="M4995 751 c-3 -5 -2 -12 3 -15 5 -3 9 1 9 9 0 17 -3 19 -12 6z"/>
<path d="M4660 739 c0 -5 5 -7 10 -4 6 3 10 8 10 11 0 2 -4 4 -10 4 -5 0 -10
-5 -10 -11z"/>
<path d="M5870 741 c-22 -7 -20 -8 18 -12 23 -3 42 -1 42 4 0 5 7 6 16 3 8 -3
12 -2 9 4 -7 11 -48 12 -85 1z"/>
<path d="M2221 724 c0 -11 3 -14 6 -6 3 7 2 16 -1 19 -3 4 -6 -2 -5 -13z"/>
<path d="M2455 727 c-4 -10 -5 -21 -1 -24 10 -10 18 4 13 24 -4 17 -4 17 -12
0z"/>
<path d="M4492 720 c0 -14 2 -19 5 -12 2 6 2 18 0 25 -3 6 -5 1 -5 -13z"/>
<path d="M4857 719 c-3 -13 -1 -19 6 -16 15 5 22 37 9 37 -5 0 -12 -9 -15 -21z"/>
<path d="M1796 722 c-3 -5 1 -15 9 -22 16 -14 20 -3 6 19 -5 8 -11 9 -15 3z"/>
<path d="M1731 663 c-25 -60 -78 -156 -117 -208 -19 -26 -111 -188 -207 -365
-16 -30 -34 -59 -38 -64 -12 -13 -11 -26 0 -26 5 0 13 9 16 20 3 11 15 20 25
20 10 0 21 4 24 9 4 5 -3 7 -14 4 -29 -8 -25 10 11 48 17 18 31 41 32 51 1 10
4 18 8 18 4 0 14 17 23 38 30 68 62 117 75 114 7 -1 9 2 6 8 -8 13 14 70 27
70 5 0 6 5 3 10 -3 6 1 10 9 10 10 0 16 9 16 26 0 16 4 23 12 18 7 -4 8 -3 4
4 -4 6 2 17 14 24 11 7 20 20 20 29 0 9 9 24 20 34 11 10 20 29 20 41 0 18 4
22 17 17 11 -4 14 -3 9 5 -4 7 -2 28 4 47 20 61 5 59 -19 -2z"/>
<path d="M2532 673 c-12 -27 -22 -56 -22 -64 1 -8 12 10 26 40 14 29 23 58 22
63 -2 5 -14 -12 -26 -39z"/>
<path d="M5655 710 c-3 -5 1 -10 9 -10 9 0 16 5 16 10 0 6 -4 10 -9 10 -6 0
-13 -4 -16 -10z"/>
<path d="M5690 710 c0 -13 20 -13 40 0 12 8 9 10 -12 10 -16 0 -28 -4 -28 -10z"/>
<path d="M2132 680 c0 -14 2 -19 5 -12 2 6 2 18 0 25 -3 6 -5 1 -5 -13z"/>
<path d="M3495 690 c-3 -6 1 -7 9 -4 18 7 21 14 7 14 -6 0 -13 -4 -16 -10z"/>
<path d="M2475 680 c3 -5 8 -10 11 -10 2 0 4 5 4 10 0 6 -5 10 -11 10 -5 0 -7
-4 -4 -10z"/>
<path d="M4503 660 c3 -19 14 -80 26 -135 12 -55 24 -113 27 -130 13 -71 86
-390 90 -394 11 -12 15 11 6 41 -6 18 -13 49 -16 68 -2 19 -9 50 -15 69 -6 18
-22 92 -37 165 -14 72 -30 139 -35 148 -6 10 -5 18 3 20 8 3 8 10 -1 26 -7 12
-9 28 -5 34 4 6 3 8 -3 5 -6 -4 -13 14 -16 45 -4 28 -12 56 -18 62 -8 8 -10 2
-6 -24z"/>
<path d="M1799 667 c6 -6 11 -24 11 -39 0 -15 4 -28 8 -28 4 0 8 -18 9 -40 1
-22 6 -48 12 -57 7 -13 9 -3 4 37 -3 30 -9 59 -14 65 -13 14 -11 43 4 48 9 4
9 6 -1 6 -7 1 -11 5 -8 9 2 4 -5 9 -16 9 -16 2 -18 -1 -9 -10z"/>
<path d="M1906 673 c-3 -4 -6 -16 -5 -27 0 -12 3 -15 6 -8 2 6 11 12 19 12 8
0 14 4 14 9 0 11 -26 22 -34 14z"/>
<path d="M2290 669 c0 -5 5 -7 10 -4 6 3 10 8 10 11 0 2 -4 4 -10 4 -5 0 -10
-5 -10 -11z"/>
<path d="M5723 672 c-57 -1 -103 -5 -103 -7 0 -5 57 -97 96 -155 28 -42 114
-211 114 -225 0 -20 47 -69 54 -57 4 7 2 12 -3 12 -6 0 -11 6 -11 14 0 8 -7
16 -15 20 -8 3 -15 14 -15 24 0 10 -5 23 -12 30 -7 7 -9 12 -4 12 4 0 -2 14
-14 30 -12 17 -18 30 -13 30 4 0 4 4 -2 8 -20 14 -37 54 -26 61 6 4 7 12 1 21
-7 10 -10 11 -10 3 0 -7 -5 -13 -11 -13 -6 0 -9 6 -6 13 3 8 -6 27 -19 42 -13
15 -24 34 -24 40 0 7 -7 16 -16 19 -8 3 -13 10 -10 15 4 5 0 12 -6 14 -10 4
-10 6 0 6 7 1 10 6 7 11 -4 6 21 10 67 11 40 1 87 2 103 4 17 1 43 3 59 4 16
0 26 4 23 8 -8 8 -65 9 -204 5z"/>
<path d="M5947 673 c-3 -5 1 -14 9 -21 12 -10 14 -10 14 2 0 10 6 13 15 10 8
-4 15 -1 15 5 0 12 -46 15 -53 4z"/>
<path d="M2191 654 c0 -11 3 -14 6 -6 3 7 2 16 -1 19 -3 4 -6 -2 -5 -13z"/>
<path d="M1851 644 c0 -11 3 -14 6 -6 3 7 2 16 -1 19 -3 4 -6 -2 -5 -13z"/>
<path d="M2465 650 c-3 -5 -1 -10 4 -10 6 0 11 5 11 10 0 6 -2 10 -4 10 -3 0
-8 -4 -11 -10z"/>
<path d="M4615 650 c-3 -5 -1 -10 4 -10 6 0 11 5 11 10 0 6 -2 10 -4 10 -3 0
-8 -4 -11 -10z"/>
<path d="M4960 640 c-9 -6 -10 -10 -3 -10 6 0 15 5 18 10 8 12 4 12 -15 0z"/>
<path d="M1957 632 c7 -5 15 -41 19 -82 3 -41 10 -79 15 -84 5 -6 7 4 4 25 -2
19 -5 57 -7 84 -3 48 -11 65 -33 65 -5 0 -4 -4 2 -8z"/>
<path d="M4871 624 c0 -11 3 -14 6 -6 3 7 2 16 -1 19 -3 4 -6 -2 -5 -13z"/>
<path d="M5030 623 c1 -14 30 -48 30 -34 0 7 -7 19 -15 27 -8 9 -15 12 -15 7z"/>
<path d="M1860 610 c-9 -6 -10 -10 -3 -10 6 0 15 5 18 10 8 12 4 12 -15 0z"/>
<path d="M2180 605 c0 -8 2 -15 4 -15 2 0 6 7 10 15 3 8 1 15 -4 15 -6 0 -10
-7 -10 -15z"/>
<path d="M5731 611 c-7 -5 -12 -14 -10 -20 2 -6 10 -2 17 9 14 22 13 23 -7 11z"/>
<path d="M2388 603 c7 -3 16 -2 19 1 4 3 -2 6 -13 5 -11 0 -14 -3 -6 -6z"/>
<path d="M3894 598 c-4 -6 -3 -8 4 -4 5 3 13 0 15 -6 3 -8 6 -6 6 5 1 19 -14
23 -25 5z"/>
<path d="M5100 591 c0 -6 4 -13 10 -16 6 -3 7 1 4 9 -7 18 -14 21 -14 7z"/>
<path d="M2345 580 c-3 -5 -1 -10 4 -10 6 0 11 5 11 10 0 6 -2 10 -4 10 -3 0
-8 -4 -11 -10z"/>
<path d="M2490 574 c0 -8 5 -12 10 -9 6 3 10 10 10 16 0 5 -4 9 -10 9 -5 0
-10 -7 -10 -16z"/>
<path d="M1940 569 c0 -5 5 -7 10 -4 6 3 10 8 10 11 0 2 -4 4 -10 4 -5 0 -10
-5 -10 -11z"/>
<path d="M2390 557 c0 -21 26 -51 34 -39 2 4 -4 19 -15 32 -16 21 -19 22 -19
7z"/>
<path d="M2350 543 c0 -13 5 -23 10 -23 13 0 13 11 0 30 -8 12 -10 11 -10 -7z"/>
<path d="M3078 553 c7 -3 16 -2 19 1 4 3 -2 6 -13 5 -11 0 -14 -3 -6 -6z"/>
<path d="M2101 534 c0 -11 3 -14 6 -6 3 7 2 16 -1 19 -3 4 -6 -2 -5 -13z"/>
<path d="M2471 517 c-21 -54 -30 -87 -22 -87 8 0 46 108 40 115 -3 2 -11 -10
-18 -28z"/>
<path d="M2144 460 c-9 -44 -20 -80 -23 -80 -3 0 -7 -21 -9 -47 -1 -26 -7 -50
-12 -53 -4 -3 -8 -12 -7 -20 2 -25 -14 -120 -21 -120 -4 0 -7 -25 -7 -55 0
-30 3 -55 8 -55 4 0 7 10 7 21 0 33 81 442 91 461 11 22 11 28 0 28 -5 0 -17
-36 -27 -80z"/>
<path d="M1890 521 c0 -5 5 -13 10 -16 6 -3 10 -2 10 4 0 5 -4 13 -10 16 -5 3
-10 2 -10 -4z"/>
<path d="M5963 513 c9 -2 23 -2 30 0 6 3 -1 5 -18 5 -16 0 -22 -2 -12 -5z"/>
<path d="M4975 500 c-3 -5 -1 -10 4 -10 6 0 11 5 11 10 0 6 -2 10 -4 10 -3 0
-8 -4 -11 -10z"/>
<path d="M5355 480 c3 -5 8 -10 11 -10 2 0 4 5 4 10 0 6 -5 10 -11 10 -5 0 -7
-4 -4 -10z"/>
<path d="M5391 474 c0 -11 3 -14 6 -6 3 7 2 16 -1 19 -3 4 -6 -2 -5 -13z"/>
<path d="M1921 460 c0 -8 4 -22 9 -30 12 -18 12 -2 0 25 -6 13 -9 15 -9 5z"/>
<path d="M2362 429 c-1 -26 -9 -65 -17 -88 -8 -22 -11 -41 -6 -41 12 0 33 101
29 140 -4 31 -5 30 -6 -11z"/>
<path d="M3711 424 c0 -11 3 -14 6 -6 3 7 2 16 -1 19 -3 4 -6 -2 -5 -13z"/>
<path d="M4781 424 c0 -11 3 -14 6 -6 3 7 2 16 -1 19 -3 4 -6 -2 -5 -13z"/>
<path d="M5296 423 c-6 -14 -5 -15 5 -6 7 7 10 15 7 18 -3 3 -9 -2 -12 -12z"/>
<path d="M5959 421 c25 -23 41 -27 41 -11 0 6 -3 9 -7 8 -5 -1 -19 3 -33 10
l-25 13 24 -20z"/>
<path d="M1876 422 c-3 -5 1 -15 9 -22 16 -14 20 -3 6 19 -5 8 -11 9 -15 3z"/>
<path d="M2427 393 c-7 -39 -1 -40 11 -4 6 17 7 31 3 31 -5 0 -11 -12 -14 -27z"/>
<path d="M1938 385 c-3 -14 -1 -25 3 -25 5 0 9 11 9 25 0 14 -2 25 -4 25 -2 0
-6 -11 -8 -25z"/>
<path d="M4131 394 c0 -11 3 -14 6 -6 3 7 2 16 -1 19 -3 4 -6 -2 -5 -13z"/>
<path d="M5728 403 c6 -2 9 -10 6 -15 -4 -7 -2 -8 4 -4 18 11 14 26 -5 25 -11
0 -13 -3 -5 -6z"/>
<path d="M5963 366 c5 -12 -45 -111 -69 -137 -8 -8 -14 -26 -14 -40 l1 -24 19
24 c11 13 20 32 20 42 0 10 5 19 10 19 6 0 10 9 10 19 0 11 5 23 10 26 8 5 40
69 40 80 0 1 -7 2 -15 2 -9 0 -14 -5 -12 -11z"/>
<path d="M2380 350 c-6 -11 -8 -20 -6 -20 3 0 10 9 16 20 6 11 8 20 6 20 -3 0
-10 -9 -16 -20z"/>
<path d="M4150 360 c-8 -5 -12 -12 -9 -15 4 -3 12 1 19 10 14 17 11 19 -10 5z"/>
<path d="M1961 340 c0 -14 8 -36 19 -50 l20 -25 -14 35 c-7 19 -16 42 -19 50
-3 9 -6 5 -6 -10z"/>
<path d="M2241 344 c0 -11 3 -14 6 -6 3 7 2 16 -1 19 -3 4 -6 -2 -5 -13z"/>
<path d="M3615 340 c10 -11 20 -20 22 -20 2 0 -2 9 -9 20 -7 11 -17 20 -22 20
-5 0 -1 -9 9 -20z"/>
<path d="M2406 333 c-6 -14 -5 -15 5 -6 7 7 10 15 7 18 -3 3 -9 -2 -12 -12z"/>
<path d="M2620 340 c0 -5 7 -10 16 -10 8 0 12 5 9 10 -3 6 -10 10 -16 10 -5 0
-9 -4 -9 -10z"/>
<path d="M3420 340 c-8 -5 -10 -10 -5 -10 6 0 17 5 25 10 8 5 11 10 5 10 -5 0
-17 -5 -25 -10z"/>
<path d="M2449 340 c-1 -3 -3 -14 -4 -25 -1 -11 -12 -41 -24 -67 -26 -58 -27
-67 -2 -42 10 10 16 25 13 32 -2 7 1 10 11 7 19 -8 33 57 18 83 -6 9 -11 15
-12 12z"/>
<path d="M3220 329 c0 -5 5 -7 10 -4 6 3 10 8 10 11 0 2 -4 4 -10 4 -5 0 -10
-5 -10 -11z"/>
<path d="M4127 319 c4 -13 8 -18 11 -10 2 7 -1 18 -6 23 -8 8 -9 4 -5 -13z"/>
<path d="M5856 328 c3 -5 10 -6 15 -3 13 9 11 12 -6 12 -8 0 -12 -4 -9 -9z"/>
<path d="M2645 310 c-3 -5 -1 -10 4 -10 6 0 11 5 11 10 0 6 -2 10 -4 10 -3 0
-8 -4 -11 -10z"/>
<path d="M1731 294 c0 -11 3 -14 6 -6 3 7 2 16 -1 19 -3 4 -6 -2 -5 -13z"/>
<path d="M2356 294 c-9 -24 -2 -26 12 -4 7 11 8 20 3 20 -5 0 -12 -7 -15 -16z"/>
<path d="M3395 300 c-3 -5 -1 -10 4 -10 6 0 11 5 11 10 0 6 -2 10 -4 10 -3 0
-8 -4 -11 -10z"/>
<path d="M1546 273 c-6 -14 -5 -15 5 -6 7 7 10 15 7 18 -3 3 -9 -2 -12 -12z"/>
<path d="M2377 263 c-7 -39 -1 -40 11 -4 6 17 7 31 3 31 -5 0 -11 -12 -14 -27z"/>
<path d="M2660 281 c0 -6 4 -13 10 -16 6 -3 7 1 4 9 -7 18 -14 21 -14 7z"/>
<path d="M2321 266 c-8 -10 -9 -16 -1 -21 5 -3 13 1 16 10 9 22 -1 29 -15 11z"/>
<path d="M1970 266 c0 -3 8 -15 18 -26 9 -11 20 -39 23 -63 l6 -42 1 50 c1 42
-2 53 -23 68 -14 10 -25 16 -25 13z"/>
<path d="M5570 249 c0 -5 5 -7 10 -4 6 3 10 8 10 11 0 2 -4 4 -10 4 -5 0 -10
-5 -10 -11z"/>
<path d="M1640 230 c0 -5 5 -10 11 -10 5 0 7 5 4 10 -3 6 -8 10 -11 10 -2 0
-4 -4 -4 -10z"/>
<path d="M2691 235 c-1 -5 8 -21 19 -35 11 -14 20 -20 20 -14 0 7 -9 22 -20
35 -10 13 -19 20 -19 14z"/>
<path d="M5970 229 c0 -5 5 -7 10 -4 6 3 10 8 10 11 0 2 -4 4 -10 4 -5 0 -10
-5 -10 -11z"/>
<path d="M2301 207 c-16 -41 -13 -57 5 -24 8 16 13 34 11 40 -3 7 -10 -1 -16
-16z"/>
<path d="M5498 223 c7 -3 16 -2 19 1 4 3 -2 6 -13 5 -11 0 -14 -3 -6 -6z"/>
<path d="M4120 210 c0 -5 5 -10 11 -10 5 0 7 5 4 10 -3 6 -8 10 -11 10 -2 0
-4 -4 -4 -10z"/>
<path d="M5060 210 c0 -5 5 -10 11 -10 5 0 7 5 4 10 -3 6 -8 10 -11 10 -2 0
-4 -4 -4 -10z"/>
<path d="M2342 163 c-15 -48 -8 -55 8 -8 7 20 10 38 8 41 -3 2 -10 -13 -16
-33z"/>
<path d="M5723 170 c-3 -11 -12 -20 -19 -20 -8 0 -14 -8 -14 -17 0 -14 2 -15
9 -4 5 8 14 10 21 6 8 -5 11 -4 7 1 -7 13 3 28 28 42 19 11 19 11 -3 12 -16 0
-26 -7 -29 -20z"/>
<path d="M2384 158 c-4 -13 -8 -36 -10 -52 -2 -24 0 -26 8 -13 5 10 7 23 5 30
-2 7 2 19 10 29 9 10 11 18 4 22 -5 4 -13 -4 -17 -16z"/>
<path d="M5208 173 c7 -3 16 -2 19 1 4 3 -2 6 -13 5 -11 0 -14 -3 -6 -6z"/>
<path d="M2737 150 c3 -11 9 -20 15 -20 5 0 4 9 -2 20 -6 11 -12 20 -14 20 -2
0 -2 -9 1 -20z"/>
<path d="M5650 155 c0 -11 -5 -15 -15 -12 -8 4 -16 3 -19 -1 -3 -4 4 -8 14 -9
23 -2 46 22 30 32 -5 3 -10 -1 -10 -10z"/>
<path d="M2271 134 c0 -11 3 -14 6 -6 3 7 2 16 -1 19 -3 4 -6 -2 -5 -13z"/>
<path d="M2290 103 c-7 -26 -17 -53 -22 -59 -4 -6 -5 -20 -1 -30 5 -13 12 4
25 56 20 81 18 108 -2 33z"/>
<path d="M5815 139 c-11 -16 -1 -19 13 -3 7 8 8 14 3 14 -5 0 -13 -5 -16 -11z"/>
<path d="M5980 140 c-13 -8 -12 -10 3 -10 9 0 17 5 17 10 0 12 -1 12 -20 0z"/>
<path d="M5460 129 c0 -5 5 -7 10 -4 6 3 10 8 10 11 0 2 -4 4 -10 4 -5 0 -10
-5 -10 -11z"/>
<path d="M5871 117 c-13 -21 -12 -21 5 -5 10 10 16 20 13 22 -3 3 -11 -5 -18
-17z"/>
<path d="M2761 114 c-1 -6 10 -36 23 -65 14 -30 25 -47 25 -39 1 18 -47 120
-48 104z"/>
<path d="M5543 101 c-16 -14 -19 -21 -10 -30 6 -6 16 -11 22 -11 5 0 3 5 -5
10 -13 9 -13 11 0 20 8 5 24 7 35 3 17 -5 18 -4 6 11 -17 20 -21 20 -48 -3z"/>
<path d="M5927 101 c-3 -14 0 -17 14 -14 15 4 17 8 8 19 -15 18 -16 18 -22 -5z"/>
<path d="M2178 103 c7 -3 16 -2 19 1 4 3 -2 6 -13 5 -11 0 -14 -3 -6 -6z"/>
<path d="M2312 77 c-17 -47 -14 -59 4 -18 8 19 13 39 12 43 -2 5 -9 -6 -16
-25z"/>
<path d="M2567 52 c2 -20 9 -41 15 -47 7 -7 8 -2 2 15 -4 14 -7 33 -6 42 0 10
-3 20 -7 23 -5 2 -6 -12 -4 -33z"/>
<path d="M5805 80 c-3 -5 -1 -10 4 -10 6 0 11 5 11 10 0 6 -2 10 -4 10 -3 0
-8 -4 -11 -10z"/>
<path d="M5492 64 c-11 -12 -9 -14 8 -14 11 0 20 4 20 9 0 17 -15 19 -28 5z"/>
<path d="M5886 71 c-4 -6 0 -18 9 -27 21 -22 26 -15 11 15 -9 15 -16 20 -20
12z"/>
<path d="M2350 58 c0 -7 -3 -24 -6 -38 -6 -24 -6 -25 9 -5 18 22 22 55 7 55
-5 0 -10 -6 -10 -12z"/>
<path d="M2237 53 c-4 -3 -7 -18 -6 -32 1 -26 1 -25 10 3 9 31 7 41 -4 29z"/>
<path d="M2021 34 c0 -11 3 -14 6 -6 3 7 2 16 -1 19 -3 4 -6 -2 -5 -13z"/>
<path d="M2176 13 c-6 -14 -5 -15 5 -6 7 7 10 15 7 18 -3 3 -9 -2 -12 -12z"/>
<path d="M5960 20 c-13 -8 -13 -10 2 -10 9 0 20 5 23 10 8 13 -5 13 -25 0z"/>
<path d="M5910 10 c0 -5 5 -10 11 -10 5 0 7 5 4 10 -3 6 -8 10 -11 10 -2 0 -4
-4 -4 -10z"/>
</g>
</svg>
